/* XPM */
static char *b78dc4e350514be8efef3f143af571fbcYBJtABWYB9HhXnI[] = {
/* columns rows colors chars-per-pixel */
"60 60 236 2 ",
"   c None",
".  c #110F07",
"X  c #15110A",
"o  c #19130D",
"O  c #1A1715",
"+  c #251C15",
"@  c #291C15",
"#  c #221E1C",
"$  c #291F19",
"%  c #311F16",
"&  c #2D211B",
"*  c #25211F",
"=  c #33241C",
"-  c #3B261D",
";  c #3E291F",
":  c #34271C",
">  c #242223",
",  c #2B2624",
"<  c #2C2829",
"1  c #342721",
"2  c #352A23",
"3  c #3C2A22",
"4  c #322D2C",
"5  c #38332D",
"6  c #3D3633",
"7  c #3E3B3B",
"8  c #313034",
"9  c #28382E",
"0  c #42271E",
"q  c #432D24",
"w  c #4A2F26",
"e  c #452F28",
"r  c #453226",
"t  c #43332B",
"y  c #4B342B",
"u  c #4E392D",
"i  c #4B3225",
"p  c #53352B",
"a  c #55392D",
"s  c #5C3C2D",
"d  c #573827",
"f  c #413936",
"g  c #4D3B33",
"h  c #453E3B",
"j  c #4B3E3B",
"k  c #543C32",
"l  c #5B3D32",
"z  c #512F24",
"x  c #623F32",
"c  c #364A32",
"v  c #3E7923",
"b  c #49413E",
"n  c #5C4235",
"m  c #5B443B",
"M  c #55453B",
"N  c #5D432F",
"B  c #64452D",
"V  c #634334",
"C  c #64453A",
"Z  c #654B3C",
"A  c #6B4C3C",
"S  c #6A4737",
"D  c #6B513D",
"F  c #77543C",
"G  c #70473A",
"H  c #496B3B",
"J  c #403D41",
"K  c #395349",
"L  c #4D4442",
"P  c #454847",
"I  c #524641",
"U  c #5C4B43",
"Y  c #544D4C",
"T  c #5B4E4A",
"R  c #574843",
"E  c #495A46",
"W  c #5B514D",
"Q  c #57504F",
"!  c #5C5453",
"~  c #5B5859",
"^  c #4E4C52",
"/  c #634C44",
"(  c #6B4E45",
")  c #6B5242",
"_  c #665249",
"`  c #735443",
"'  c #7B5B46",
"]  c #745B4B",
"[  c #7B5D4C",
"{  c #755647",
"}  c #615553",
"|  c #6B5751",
" . c #6C5A53",
".. c #635C5A",
"X. c #6A5D5B",
"o. c #645955",
"O. c #765E56",
"+. c #714F43",
"@. c #48694A",
"#. c #556B56",
"$. c #4C6C4D",
"%. c #7B614C",
"&. c #7B6047",
"*. c #6B615A",
"=. c #7C6352",
"-. c #74635C",
";. c #7A625A",
":. c #7A6857",
">. c #647F5A",
",. c #5B5E63",
"<. c #615F61",
"1. c #5C7265",
"2. c #646264",
"3. c #6D6964",
"4. c #666569",
"5. c #6A696B",
"6. c #6A6565",
"7. c #766966",
"8. c #75726E",
"9. c #6A6D73",
"0. c #626A71",
"q. c #6D747D",
"w. c #6D7075",
"e. c #757274",
"r. c #7A7374",
"t. c #71757D",
"y. c #7B797A",
"u. c #825D49",
"i. c #825A52",
"p. c #82624C",
"a. c #836554",
"s. c #8B6B54",
"d. c #83665B",
"f. c #82695B",
"g. c #8B6E5B",
"h. c #846955",
"j. c #956D5B",
"k. c #8B725D",
"l. c #837059",
"z. c #93745C",
"x. c #9A765D",
"c. c #96785C",
"v. c #90644D",
"b. c #866C65",
"n. c #857263",
"m. c #887566",
"M. c #947A65",
"N. c #997B64",
"B. c #957D69",
"V. c #9A7D69",
"C. c #947463",
"Z. c #867C77",
"A. c #9A7E71",
"S. c #A57C67",
"D. c #4C8230",
"F. c #4EB32D",
"G. c #54CB2B",
"H. c #5A8547",
"J. c #67914F",
"K. c #708C7A",
"L. c #5DCA40",
"P. c #74D25A",
"I. c #9C836C",
"U. c #978369",
"Y. c #8D8476",
"T. c #968174",
"R. c #9A8473",
"E. c #9B8879",
"W. c #99917E",
"Q. c #A3836C",
"!. c #A8876B",
"~. c #A68C75",
"^. c #AA8C73",
"/. c #A38C7A",
"(. c #A68777",
"). c #B48E74",
"_. c #AB9276",
"`. c #AA927B",
"'. c #A9967D",
"]. c #B4957A",
"[. c #B79779",
"{. c #B68E6D",
"}. c #C09378",
"|. c #7B7D81",
" X c #7F8388",
".X c #878687",
"XX c #968C85",
"oX c #899585",
"OX c #9F9387",
"+X c #979595",
"@X c #8D8E91",
"#X c #A08F85",
"$X c #AB9584",
"%X c #A79687",
"&X c #B09682",
"*X c #B29A84",
"=X c #B89D87",
"-X c #AA9B91",
";X c #A99694",
":X c #B79E98",
">X c #BAA28B",
",X c #B9A38A",
"<X c #BCA695",
"1X c #BCAA95",
"2X c #BDAB9A",
"3X c #B5A595",
"4X c #B5AA99",
"5X c #9C9DA3",
"6X c #A2A2A4",
"7X c #B9AEA3",
"8X c #BAB1A8",
"9X c #BDB9B3",
"0X c #C79385",
"qX c #C8A789",
"wX c #D4AD8B",
"eX c #C6AB95",
"rX c #CBB39B",
"tX c #C8B198",
"yX c #D5B89A",
"uX c #D3B08E",
"iX c #E0B999",
"pX c #C4B3A1",
"aX c #C7B8A8",
"sX c #D1B9A4",
"dX c #D5BEA8",
"fX c #C6BAB0",
"gX c #D8C1A8",
"hX c #D7C9B8",
"jX c #CBC4B4",
"kX c #E6CEB3",
"lX c #D8D7D8",
"zX c #D3CFC8",
"xX c #E7D8C7",
"cX c #E3DCD5",
"vX c #F1DDC3",
"bX c #EDE8DF",
/* pixels */
"                                                          e...                      gX                                  ",
"                                                    e.2.! L h 6 <               hX<X<XdXtX                              ",
"                                                  3.! 7 6 4 > < < 4             b.c.^.~.tX                              ",
"                                                5.~ 7 h 7.f > W y.e. X        &Xg.p l { [ ,X                            ",
"                                              Q 6 7 4 :. .W 4 8X5X^ 7 P       ( =.A s s [ *X                            ",
"                                            8   h > 5 :.=. .W 9X7 # # O           g.F V Q.~.~.                          ",
"                                            >   < , *.sX$XI _ I , 4 >                 a s u.eXg.                        ",
"                                              < # * U _.W.3.] g $ O O                   g.G eXsXR.                      ",
"                                              > , O * Y.-X .m M 6 2 M                     C.j.dX*X                      ",
"                                              4   * # M z.3 $ :.~./.2XaXaX    cXcX        A.S Q.&Xm.                    ",
"                                                    J m ` k ] *XI.a.s.h.aX;XeXqXeX=Xm     S.S S h.f.                    ",
"                                                    i.m t n C =.z.,X>XeX<XZ C [.S.` p.`.=.` G x l O.;X                  ",
"                                              fX$XS.Q.`.=X*X/.C.~.h.I.rX*XZ p V s N.dXxX&X` V l a i #X                  ",
"                                            zX-X(.pXI.=XdXpXpX1X>X`.$Xb./ - ; w V { f.M.[ ( w a a w R.                  ",
"                                          hX#XU.*XR.I.!.I.d.{ / k.V.l p q % @ % ] l z s w 0 p a a l !.z.                ",
"                                          ;Xf.%.n ( C C C l a k D M.) [ Z & r 0 @ = ; l C ' ` B s S F                   ",
"                                        :.( ( n r @ q p p a s.yXdX/.k.`.Q.z.a.A o o   s z B                             ",
"                                        :.C a /./.u r a.V._.qXuXa.n Z w 3 ` %.' +                                       ",
"                                          O.k.hX3Xm Z g.a.=X].V.l V =.k.%.p.p.%.                                        ",
"                                          N.1XxX:Xu Z z.qXI.].~._.eXQ._.^.s.s.A                                         ",
"                                          S.>XhX/.- l [ ].yXQ.k.eXa.Z ) e A &.d                                         ",
"                                          j.V.2Xd.a p g.,XuXuX*X] n ] k.Z p.D %                                         ",
"                    Y.t                   A A d.w B - A Q.^.N.N.=XyXuX!.{.j.A o                                         ",
"                  9X*Xm '.                Z p x -     >Xp.[ _.[.wX).[ p.F F q .                                         ",
"                  2X_.u l.n.          1X1Xa.S x -     2XB.%.h.c.` s S c.V s - .                                         ",
"                  pX'.Z ) U.        #Xb.S ' S ; i     f.V Z ' ].qXyXqX!.{.z.= o                                         ",
"                  %X_.%.u =.    $XM.] V.sX<X+.s       kX&Xw a x.[.wX}.Q.).Z Z :                                         ",
"                    g.l =.'.n.aX/.) N A Z l S ]     3X<XV.p 0 S x.N.V ' a a ) U.                                        ",
"                    =.=.[ :.m./.h.s.u.` s g.%X-X    j.V ' ; p u.v.x.C ] k q n C.a.                                      ",
"                        U.m.n.M.%.%.] F           rXQ.C c.D q s.j.].!.z.k q n ` yX                                      ",
"                                              zXbXhX>XV.M.[.y y f.( l k - w q Q.kXeX                                    ",
"                                            zXxXgXgX1X*XQ.=X3 r k m t 1 @ w = %.yXgX].1X                                ",
"                                          jXhX=XV.R.R.*X!.n.= A k g 2 $ @ & ; s.qXwX).rXsXhX                            ",
"                                          aXsXN.V.=.B.*Xk.g 3 r k t 1 & $ $ n uX!.wXqX[.gXhXxX                          ",
"                                        7X$XtXg.d.k._.[.=.y ^.m 3 & $ $ $ & n qX].).uX].uXkXxXxX                        ",
"                                        -XtXrX_.N.,X&X`.:.] `.u 3 = $ $ & 3 t =.].x.qXqX!.yXvXxXhX                      ",
"                                        C.sXtX$XT.gX*XI.:.a.U t 2 = & & 2 t t t ) c.N.=XS.).gXrX<XfX                    ",
"                                        /./.T.b.R.aX$XU.;./ j t 4 , 2 , 2 t t 1 : A S p.Q.a.[.qX].f.3X                  ",
"                                        3Xb.$X1X-X%XE.E.| I b             t 1 = = q l p A a [ [.qXg.f.-X                ",
"                                      i.f.R.aX8X7X#Xb.m.L L                 : $ @ ; p q q i 3 C Q.N.) E.XX              ",
"                                      (./.3X/.Z.XX-XX.T                       : = + = 3 3 3 : 3 u C { n.OX              ",
"                                    (.A.R.*X2X-Xb.m.}                               u D ) e 3 3 y g / | -.X.            ",
"                              3XjXhXfX#XI.| -.%XE.} T                                   B.m t t g M T T 7.6.            ",
"                            8XfXpX2X3XE.=.R U -.7._                                       n.U M M I T T 7.r.            ",
"                          XXOXT.E.tX1Xm.U R U | |                                           -.W Y T T T X.+XZ.          ",
"                        y.*.T  ./.T.B._ U _ ;. ._                                               3.! Y T o.y.y.          ",
"                        8.Q o.E.n.n.| U / ;.;. .U                                               Z.X.7.7.X.6.4.          ",
"                      5.<.~ Z.Z.n.7.W T O.;.O.| M                                             .X..X.X.X.o.2.<.          ",
"                      5.4.5.y.8.Z.X.X.-.7.d.O.R j                                             *.! ! ..! ! !             ",
"                      9.9.|..XY.r.7.7.r.*.X.W L                                               ! Y } } ! Q Y             ",
"                      w.|..X6X.Xr.8.e.X.o.T h                                                 o.Y ! W ! Y               ",
"                      9.t.+X6X|.r.r.6.} I b                                                   ..Y W W W Y               ",
"                    ,.2.|.+X@Xy.y.7.T h                                                       3.W W W L                 ",
"                    ~ 5.+X+Xt.t.e.Y h                                                         3.Y Y f f                 ",
"                    2.y.+X|.q.t.,.h                                                         3...h 6 6                   ",
"                  2.4..X.Xq.q.q.Y                                                           3.L h 6 6                   ",
"                  2.4..Xt.t.q.q.                                                          3.Y L f 6                     ",
"                2.2.4.|.q.q.q.                                                            ..L b f 6                     ",
"              4.4.4. Xt.0.q.                                                            o 4 f f 6 5                     ",
"            t.9.5.9..X,.,.                                                              X . X X X X X +                 "
};
