/* XPM */
static char *e08d773389b04a8bcab1d134e63ea862GuLD3gdKOOESnSMh[] = {
/* columns rows colors chars-per-pixel */
"60 60 231 2 ",
"   c None",
".  c #141312",
"X  c #1D1C1B",
"o  c #181716",
"O  c #201E1E",
"+  c #351D18",
"@  c #3B221E",
"#  c #34201B",
"$  c #262425",
"%  c #292625",
"&  c #292728",
"*  c #2C2A2B",
"=  c #2C2823",
"-  c #3D2621",
";  c #332A26",
":  c #322E2D",
">  c #3C2E29",
",  c #392924",
"<  c #3D312B",
"1  c #322F30",
"2  c #353233",
"3  c #393435",
"4  c #3A3738",
"5  c #3D393A",
"6  c #41251F",
"7  c #422A25",
"8  c #4C2B25",
"9  c #472B26",
"0  c #542D28",
"q  c #43342D",
"w  c #4B322D",
"e  c #55332C",
"r  c #4B3631",
"t  c #443832",
"y  c #4B3C34",
"u  c #4B3E39",
"i  c #413B3A",
"p  c #523D35",
"a  c #563B35",
"s  c #6B3738",
"d  c #773C3D",
"f  c #4B423C",
"g  c #534137",
"h  c #54443B",
"j  c #5C453B",
"k  c #5D4A3E",
"l  c #594237",
"z  c #64493E",
"x  c #3B3745",
"c  c #423E42",
"v  c #7D3D42",
"b  c #444142",
"n  c #4B4543",
"m  c #4C4848",
"M  c #544A44",
"N  c #5D4C43",
"B  c #524D4C",
"V  c #594943",
"C  c #5C504A",
"Z  c #545153",
"A  c #5E5855",
"S  c #4D4952",
"D  c #624E43",
"F  c #634F48",
"G  c #655245",
"H  c #695446",
"J  c #64544C",
"K  c #6A564A",
"L  c #6D5A4D",
"P  c #6D5844",
"I  c #725C4E",
"U  c #775949",
"Y  c #645953",
"T  c #6C5B51",
"R  c #625D5C",
"E  c #675853",
"W  c #735F53",
"Q  c #7C5F52",
"!  c #7A4245",
"~  c #7D614B",
"^  c #6B625A",
"/  c #746154",
"(  c #73635A",
")  c #7D6A5D",
"_  c #7B6458",
"`  c #5C5765",
"'  c #645D62",
"]  c #6C6965",
"[  c #7C6B63",
"{  c #766B66",
"}  c #7B726C",
"|  c #7A7367",
" . c #7D7777",
".. c #6D6978",
"X. c #825848",
"o. c #89694E",
"O. c #846B5C",
"+. c #8A6C5C",
"@. c #866857",
"#. c #916D51",
"$. c #8A735C",
"%. c #987758",
"&. c #836C62",
"*. c #8A6360",
"=. c #8C7363",
"-. c #84756C",
";. c #87776A",
":. c #917664",
">. c #937D6C",
",. c #9C7D6B",
"<. c #987A64",
"1. c #847B73",
"2. c #8C7D73",
"3. c #827A76",
"4. c #937E74",
"5. c #A47D6C",
"6. c #9B816D",
"7. c #8B837B",
"8. c #8A8478",
"9. c #9B8373",
"0. c #92847A",
"q. c #9A867A",
"w. c #9A8A7C",
"e. c #958575",
"r. c #AB8A66",
"t. c #A2826D",
"y. c #A8896B",
"u. c #B3936E",
"i. c #A48A73",
"p. c #AC8A74",
"a. c #A48D7C",
"s. c #AC8E7A",
"d. c #A58572",
"f. c #B38D74",
"g. c #BA8C78",
"h. c #AB917D",
"j. c #AB9275",
"k. c #BB9473",
"l. c #BB9B75",
"z. c #B3937C",
"x. c #BA957C",
"c. c #B69978",
"v. c #B08F6A",
"b. c #BFA079",
"n. c #CB9C7D",
"m. c #C4977A",
"M. c #D29D7A",
"N. c #C4A47C",
"B. c #C6A67C",
"V. c #DBA27C",
"C. c #787486",
"Z. c #8C8686",
"A. c #938B85",
"S. c #9A8C82",
"D. c #968F89",
"F. c #9C9585",
"G. c #96928B",
"H. c #9B968D",
"J. c #999687",
"K. c #9D9998",
"L. c #8A8893",
"P. c #A58C82",
"I. c #A49284",
"U. c #AC9584",
"Y. c #AC9A84",
"T. c #AC9A8A",
"R. c #A7978A",
"E. c #B29682",
"W. c #BB9A83",
"Q. c #B39D8C",
"!. c #BA9A85",
"~. c #A29C95",
"^. c #A79B94",
"/. c #B9A488",
"(. c #A5A29C",
"). c #AAA49D",
"_. c #ACA496",
"`. c #B3A293",
"'. c #BAA393",
"]. c #B9A89C",
"[. c #A099A7",
"{. c #ADAAA4",
"}. c #ADA6A7",
"|. c #B5AEA5",
" X c #B9B4AC",
".X c #B7B3A9",
"XX c #BBB6B1",
"oX c #BDBBB7",
"OX c #AEA6B5",
"+X c #918AAA",
"@X c #C39C83",
"#X c #CB9F82",
"$X c #CBA58C",
"%X c #C4A78C",
"&X c #DCAA8D",
"*X c #C6A993",
"=X c #D3A693",
"-X c #CBB39B",
";X c #D7B29C",
":X c #E8AC84",
">X c #EDB792",
",X c #C9B8A5",
"<X c #D7BBA7",
"1X c #C1BCB7",
"2X c #C1AFA1",
"3X c #E2BCA4",
"4X c #CAC2BD",
"5X c #D9C7B1",
"6X c #DDCAB1",
"7X c #E7C6AB",
"8X c #EECDB3",
"9X c #E4CAB5",
"0X c #F7CCBA",
"qX c #E9D3BB",
"wX c #F1D1B6",
"eX c #F8D6BB",
"rX c #F6C9AE",
"tX c #CAC6C5",
"yX c #D1CECA",
"uX c #D6D2CC",
"iX c #D6D4D3",
"pX c #DBD9D6",
"aX c #EAD5C5",
"sX c #F9DAC6",
"dX c #E2DEDB",
"fX c #F0CEC4",
"gX c #FCE9CC",
"hX c #F9E4CA",
"jX c #FDE7D3",
"kX c #E2E0DE",
"lX c #E7E4E4",
/* pixels */
"                            W.f.      f.                                                                                ",
"                          n.( M ) ,.( y [ _ _ =.d.                                                                      ",
"                      t.&.K M y y y p y q > ; 3 t M >.                                                                  ",
"                  m.) J G G h t q y j y q y N G G D N =.                                                                ",
"                n.J K K h > > > h H G q y G G G G G G G >.                                                              ",
"              t.M 2.G p y g y G H H k ; = < y k G G H W ( s.                                                            ",
"            ( h K G g D G g G H H H y $ $ k D g g G H K 0.^.                                                            ",
"            -.T / k G G D D H H H D t < ; t G G D k k G H L x.                  d.O.O.x.@X@X                            ",
"            ( ) F G D H k K H H G p k q g < k G G L k h I / :.              M.{ * o X X O $ : } p.                      ",
"          6.K T I D H W L H G L K L K q k k y K G H L G N L /             h.R 2 : : * & $ $ & & & 2 ( p.                ",
"          =.K T ) L / K &.I K / ) :.m.p G L h K G / H I g h N           W.3.5 3 3 3 3 2 2 & & & * 2 2 2 [               ",
"          =.N D N K K D / G K W +.=X3X+.K L K < L H K z k q f W.         .Z.b c 3 3 2 2 * & * & * 2 2 2 2 J             ",
"          =.y G > z H N D z L I @X7X7X=XH N D t N j j j k < f         a.B 3 4 3 3 4 1 $ * 2 1 & & & & 2 4 R ;.          ",
"          =.q j $ k k y j k N W.7X7X7X7Xp.j y k _ D l l l < h         { 4 3 3 3 2 & & 2 2 * & & * & * & 4 b 5 @X        ",
"          :.= g $ g g y j y K 7X8X8X8X8X7XI < y g.j l p l > J       E.A 3 3 3 2 * 1 2 2 & $ & & 2 & * 1 & 2 2 )         ",
"          d.A y = y q q l Q !.wXwXwXwXwXwX<XN > $X5.p q y = =.      0.b 3 5 5 : 2 4 2 & & 2 * * 2 : & 1 1 & 2 5         ",
"            Q.f ; q < ; +.*X9X-X-XwXwXwX7X7X*Xu <X<Xp < > :         ] 4 4 b 2 2 4 5 * 1 2 2 & 2 2 1 & * 2 : : 2 z.      ",
"              ) > > y C m S Z w.9.8XwX7X=.1.Z Z m R.T ; y 2.      @Xb 4 Z 3 2 5 n 2 2 2 3 * & 2 4 4 * 2 1 3 * 2 :.      ",
"              m.t > @.0.K.Z. .Z.,XwXwXwX,X}.}.K. .A.e.; ,.Q.      >.R B 4 2 5 B 2 2 2 5 4 : : 3 5 n E 1 1 2 2 : )       ",
"                0.D g.<X}.dXyXtXhXeXwXeXgX1XyXlXXXaX!.Q =XQ.      C 2 n 3 5 R 2 2 2 4 i f a.M 2 i ( U.: 2 1 5 * Y       ",
"                W.!.n.8X<XtX4XhXgXhXeXhXgXjX4X4X5XeX&X$XU.      ;.2 2 : 1 Z 2 : * 4 m w.<X5XM b 5 Q.5XB 4 1 5 b M       ",
"                  !.q.@XeXrXeXhXgXgXeXhXgXgXsXrXeX3X) W.      x.b & & & i B i 2 b } aX,XS.,Xn Z C 9XqX| b 4 b Z u       ",
"                      @X!.;X7XhXgXgXwXgXgXgXwX3XQ.^         x.Y & $ & * 5 & n Z Z x ' ,XqX0.m B 2.`.,Xq.Z 5 5 B Y       ",
"                          h.'.T.S.%X7X-XY.Y.Q.#X          z.B 5 B $ & * & 2 3 [ L.C.S ` |.T.2 J <XqXsXT.b * * R '.      ",
"                              n.O.%.$Xf.:.i.f.            x.p.  6.2 & & $ $ J =XL.+XC.aXqX| 2 ,XR. . .' & & 2 (         ",
"                              $.X.<.*X#.r.%.%.8.m.                f & $ $ X _ 0XsXfXjXjXsXn w.aX..` K.c $ & 1 $X        ",
"                            W.v.l.E.%Xr.N.u.B.%XF.z.              / O $ $ o X a.0X0X0XjX2X'.hXjXOX[.}.: $ & (           ",
"                            U.l.l././.r.m.r.u.l.B.c.j.            x.X O X . . O &.<XsXsX5XhXjXsX9XsX=Xt & 4 f.          ",
"                          x.c.u.y.w.i.r.c.#.P $.b.B.l.<.-.0.8.;.x.  :.( o . . . o $.d.*XqXsXjXsX0X=XL & 4 p.            ",
"                          6.r.u.i.6Xj.j.`.%.o.x.z.i.k.N.9.@X$XE.-.      :.&.2 h U u.#.s z @.J J h ; $ : >.              ",
"                        h.l.%.u.Y.qXj.u.u.k.u.=.    i.c.B.y.%X  -.p.    x.6.A.l.B.u.U s s U < X X 2 (                   ",
"                      t.=.k.~ N./.qX/.N.N.N.u.>.      E./.l.O.;.4.  &Xs.i.<./.k.l.y.4.0 [ <./ ) :.@X                    ",
"                    i.{ N.y.) ~ Y.5X/.c.y.+.2.&X        U.*Xh.Y     :X9.B.B.k.v.l./.A.d X.%.d.                          ",
"                    3.Y.N.=.I.L Y.2X,X-Xe./ { F.T.x.  m.;.9X-Xq.k.  d.c.B.r.r.u.c.dXlX! d ~ f.                          ",
"                    3.c.%.8.1.T.h.5X.X_.>.,X( 8._. X_.2.A J n -.M.s.B.l.P o.N.u.|.kXiXP.s U                             ",
"                    L u.O.s.^ L E 2.8.>.G l N J.| F.J.H.} B ] 7.e.N.r.w.A.-.i.`.iXiXyX^.d s ,.                          ",
"                  E.s.+.$Xs.^ 7 , r w - 7 @ h J.| G.G.8.I.{ W.R.N.r.w.} 1X1XXXiXlXpXlXY.X.v *.                          ",
"                  8.I.4.>Xs.r 7 7 h F w 8 8 N w.). X8.8.1.i.h.l.$.I.w.q 4.-.yXpXyXiXiX/ X.s &.                          ",
"                  { ] ;.  ,.y G.oXA.9.2.7.1.R Z.(.T.:X  >.R <.o.G.H.H.w l F [ oXiXiX} } ~ s.                            ",
"                @XZ.A.    =.8.8.1.U.    Q.7.K.D.( Y t.  q.2X9X;.|..XH.( 7 7 w J T ( Y ^ I t.                            ",
"                Z.K.'.    8. X-.{       S.|.).|.uX1.u x.q.R.,X^ ).0.J.-.8 9 q 7 # 7 - n V N { ;.-.-.1.1.1.} x.          ",
"              E.|. Xn.    A.1X).A m.@X_.XX^.P.{ 2.a 9 =.  0.{ ] D.| A.8.J ).R.{ 1.N @ Y 8.0.h.E.h.a.h.a.U.s.            ",
"              _..X_.      J 1.N @ E {.uX|.V.  &.w 8 - F   n.1.^ G.8.8.8.C 0.S.[ Y } C G                                 ",
"            !.{.XXE.      T e 8 r 7.{.} t.      ,.> 8 w t.    e.3.G.] @Xa.H.4XuX XH.-.[                                 ",
"            A.~.K.        n.,.C 7.(.[ w r :.      9.e 0 @.    x.e.H.{.'.  0. XpXuX4XyX1.n.                              ",
"          h.G.{._.          w.H.~.T.,.@.w # E       O.e a f.         X4XT.M.-.A.uXA.).M D                               ",
"          D..XuXU.          9.P.U.      t.@ q m.    f.H 8 =.        @X1XoX].A p L a p r z                               ",
"        U.4X1X(.:X                        V q m.      +.7 M           W.{.(.).W 8 0 # 7 j                               ",
"        (.(.~.T.                          [ F m.      k.r - p.          Q. X{.^.V 8 0 + p                               ",
"      z.1.U.m.                                          j - x.            R.(.G.7.a e 6 r                               ",
"                                                        V u                 `.yXXXN e 8 r                               ",
"                                                                              ].uX XD e w                               ",
"                                                                                 XyXXXj 9                               ",
"                                                                                M.~.(.7.q p.                            ",
"                                                                                  m.U.7.( ;.                            ",
"                                                                                      <.@ > d.                          ",
"                                                                                        J e p k.                        ",
"                                                                                        9.j e [                         ",
"                                                                                          d.) 9.                        ",
"                                                                                                                        "
};
