/* XPM */
static char *_822bc6aef4741c6bdcb78fcfae31de3tFuylAJbG1MWkTIV[] = {
/* columns rows colors chars-per-pixel */
"60 60 205 2 ",
"   c #6A7D4E",
".  c #6C7F52",
"X  c #677C51",
"o  c #6A824E",
"O  c #6D8252",
"+  c #6F8855",
"@  c #6C8359",
"#  c #6F8859",
"$  c #728355",
"%  c #748B55",
"&  c #74865A",
"*  c #758B5A",
"=  c #798C5D",
"-  c #77925C",
";  c #7A935D",
":  c #7D9C5C",
">  c #748D62",
",  c #7D8E62",
"<  c #779065",
"1  c #7C9363",
"2  c #7F9D61",
"3  c #7E9669",
"4  c #7E9869",
"5  c #7EA563",
"6  c #7FA867",
"7  c #7FA269",
"8  c #7FA969",
"9  c #82975F",
"0  c #829C5F",
"q  c #82A15E",
"w  c #848D62",
"e  c #829563",
"r  c #849B63",
"t  c #8A9D65",
"y  c #85956A",
"u  c #89966B",
"i  c #859A6C",
"p  c #8A9C6C",
"a  c #909F68",
"s  c #8D9E72",
"d  c #869D71",
"f  c #929E73",
"g  c #919D79",
"h  c #84A464",
"j  c #89A465",
"k  c #85A966",
"l  c #88AA66",
"z  c #85A46A",
"x  c #8BA46B",
"c  c #85AB6A",
"v  c #8AAC6C",
"b  c #90A467",
"n  c #93A46C",
"m  c #92AB6D",
"M  c #99A96E",
"N  c #87B167",
"B  c #87B16D",
"V  c #8BB36C",
"C  c #8CB66A",
"Z  c #91B56D",
"A  c #90B96F",
"S  c #86A670",
"D  c #8DA472",
"F  c #87AC71",
"G  c #8DAB72",
"H  c #8FA47B",
"J  c #93A474",
"K  c #9AA675",
"L  c #93AC73",
"P  c #9DAB74",
"I  c #93A579",
"U  c #9BA579",
"Y  c #95AB7A",
"T  c #9BAC7B",
"R  c #8DB372",
"E  c #8EB973",
"W  c #93B473",
"Q  c #9BB475",
"!  c #94B973",
"~  c #9CBB74",
"^  c #97B57B",
"/  c #9DB47B",
"(  c #9CBD79",
")  c #A1AC75",
"_  c #A3AD7C",
"`  c #A9AE7E",
"'  c #A1B376",
"]  c #A2BD77",
"[  c #A9BE77",
"{  c #A4B37A",
"}  c #AAB47D",
"|  c #A3BB7C",
" . c #AABC7D",
".. c #B1BC7E",
"X. c #99C077",
"o. c #9EC17B",
"O. c #A2C277",
"+. c #A3C37C",
"@. c #AAC47D",
"#. c #A6C97F",
"$. c #ADC87F",
"%. c #97A780",
"&. c #9EA781",
"*. c #9BAB82",
"=. c #9DB484",
"-. c #9FB880",
";. c #A3AD82",
":. c #ABAE81",
">. c #B0AE85",
",. c #A4B282",
"<. c #ACB483",
"1. c #A3BB82",
"2. c #ADBC82",
"3. c #A3B689",
"4. c #ADB68A",
"5. c #A7BB8A",
"6. c #ADBD8A",
"7. c #B1B584",
"8. c #B2BC85",
"9. c #B3B68B",
"0. c #B4BC8B",
"q. c #BABD8C",
"w. c #B6BD91",
"e. c #BBBC91",
"r. c #C1BF96",
"t. c #A5C581",
"y. c #ACC482",
"u. c #A6C984",
"i. c #ADCA85",
"p. c #ADC58A",
"a. c #AECC88",
"s. c #A5C38C",
"d. c #B3C384",
"f. c #B9C486",
"g. c #B2CB86",
"h. c #B5C28A",
"j. c #BBC38C",
"k. c #B4CC8A",
"l. c #BBCB8D",
"z. c #AFD089",
"x. c #B4D28C",
"c. c #BBD28F",
"v. c #B3C393",
"b. c #BAC195",
"n. c #BDC396",
"m. c #BCC393",
"M. c #B6CD93",
"N. c #BDC993",
"B. c #BEC599",
"V. c #B6C69C",
"C. c #B6D690",
"Z. c #BDD292",
"A. c #BBD896",
"S. c #C0C48F",
"D. c #C1C98F",
"F. c #C3C593",
"G. c #C8C796",
"H. c #C3CA94",
"J. c #C9CA97",
"K. c #C3C49A",
"L. c #C7CB98",
"P. c #C3CA9D",
"I. c #C3CB9C",
"U. c #CACC9B",
"Y. c #C3D395",
"T. c #C6D19B",
"R. c #CAD29C",
"E. c #C5D898",
"W. c #CADD9D",
"Q. c #D2D29E",
"!. c #C6CDA2",
"~. c #CBCEA3",
"^. c #CCCEA3",
"/. c #D0CFA0",
"(. c #CBD3A3",
"). c #CAD2A6",
"_. c #CCD2A4",
"`. c #CDD8A5",
"'. c #CAD2A9",
"]. c #CDD4A9",
"[. c #CFD9A9",
"{. c #C4D8A5",
"}. c #D3D4A3",
"|. c #D8D7A7",
" X c #D3DAA5",
".X c #D3D5AA",
"XX c #D8D7AB",
"oX c #D4DAAB",
"OX c #DBDBAD",
"+X c #DBDBA7",
"@X c #D5DDB2",
"#X c #DBDEB2",
"$X c #C6E3A1",
"%X c #DDE0AD",
"&X c #DCE2B4",
"*X c #DDE4B8",
"=X c #D7E7B1",
"-X c #E0E5B5",
";X c #E1E6BB",
":X c #E4EABB",
">X c #E8F3BB",
",X c #E7ECC1",
"<X c #EAEEC4",
"1X c #EFF2C9",
"2X c #EBF0C7",
/* pixels */
";.;.4.;._ <._ _ :.4.0.U.@X@X*X*X].).].).!.I.P.9.9.w.P.m.q.} q.m.0.m.q.q.n.b.0.<.{ 4.4.` P P ) P M K P n a n M n t t n n ",
"V.'.).B.b.K.P.n.q.q.F.U.P.n.I.I.b.n.m.n.H.j.j.} q.q.U.I.U.I.S.7.<.0.q.0.b.0.<._ _ ,.K T ) P ) ) P P n n n a n n n b p p ",
"!.'.'.'..X.X^.^.K.m.q.:.<.` ` <.` <.0.j.j.8.j.8.j.F.R.U.U.F.7.} 7.` _ _ ` ` 4.0.b.v.6.v.h.2.P P P K { 2.2.{ M x n n x x ",
"'.oXoX(.(.n.0.m.j.} { 8.8.<.<.<.<.2.<.} ) ` 4.7.8.j.q.} } 7.8.j.q.7.<.;.4.0.B.P.^.^.n.w.q.8.8._ _ ) } d.h.2.' M P ' M P ",
"4.h.N.j.m.0.0.8.0.8.h.m.{ } 7.8.8.2.4.4.<.<.8.j.F.F.q.0.q.0.8.0.7.<.4.b.P.b.0.<.9.F.e.r.G.q.} _ } { { {  .8. .{ } } } 2.",
"} <.2.} _ P ) P ) { } _ ) } <.<.8.0.4.4.4.0.n._.}._.U._.}.U.I.I.F.I.P.b.0.9.q.q.w.P.K.e.9.7.<.8.<.<.} } } } { P ) ) j.N.",
"{ } } ) ) K P K P P P P ) ` 4.4.0.b.n.n.!.@X*X&X*X@X.X_._.(.U.I.n.b.b.w.w.b.w.w.7.:.>.9.e.q.` 7.0.b.j.m.N.N.N.j.8.7.F.j.",
"} <.<.P P K ) ) } { _ { ` 7.n.I._.OX:X;X;X;X#XoXOXoXOX.XoXOX.XI.n.w.w.w.0.w.q.9.9.w.r.K.K.P.w.F.K.n.b.0.0.0.0.F.D.D.q.8.",
"N.m.N.0.<.8.N.m.H.j.8.2.7.w.K._.;X,X*X,X2X1X1X*X&X&X*X&XoX.X].I.n.n.P.B.b.B.P.K.K.e.e.K.P..X~.e.9.<.9.0.q.0.I. X}.Q.q.F.",
"oX(.H.h.I.R.(.R.I.0.0.I.P..X)..X;X,X:X<X2X#X].I.(.I.I.n.w.0.0.b.n.B.B.P.).]._.P.K.e.K.K.K.K.K.K.K.K._.U.I.m.b.J.Q.U.r.8.",
"@X`.=X>X:XI.<.<.0.I.[.].oXoXoXoX].].!.B.n.w.0.h.N.h.0.j.m.H.T.H.m.I.(..XoX].].OX.X}..X.X.XXXOXOX&X#X#XoX_.I.}.+X+X+XQ.H.",
"6.j.T.H.j.<.<.0.I.(.!.P.I.R.T.I.I.m.0.0.0.0.0.0.8.<.2.m.m.h.0.h.N.`.oXoX@X&X&X@XOXOX#X|.OX#XXX|.OXOX#X|.|.}.P.J.F.F.H.D.",
"6.2.} { _ _ 2.2.6.4.<.;.) <.{ { <.6.h.h.h.m.m.8.2.2.0.0.8.2.6.0.j.I.P.B.).].].XX^..XXX.XXXOXXXOXOXOX}.J.U.|.}.Q.U.H.F.S.",
"{ { } { } <.j.0.4.<.,.,.{ { } { { 6.6.6.m.I.h.<.{ 2.6.8.8.j.H.h.2.0.w.P.@X@X@XXX^.^..X/._._.}.}./.G.F.F.F.G.F.F.F.S.D.D.",
"Y / { | / / 1.1.5.v.{.=X$XA.Q Q ( Q / 1.| { Q ( | y.2.} 8.L.}.^.!.OXOXOX|.|.|.|.}.U.J.G.G.F.F.G.J.F.F.F.S.H.F.j.8.d.d...",
"/ | Q Q / / | 1.1.5.v.M.i.u.Q Q | | | / { | | ~ @.y.2.j.U.-X:X-X&X].|.}.}.|.|.|.U.G.F.F.G.F.q.F.J.J.F.G.L.U.L.j.d.d.d.8.",
"p.y.| / | | / | / / Q Q Z Z Q Q | | | | | | / ~ |  .h. X%XoXoXoX(.I.G.U.}.}.U.I.F.q.m.G.F.S.q.q.S.j.j.D.D.H.D.j.d.d.d.d.",
"p./ 1./ / | { { 1.y.y.y.O.~ @.+.@.~ | | | | | ( Q | j.}. X}.(. X`.T.F.q.q.j.F.j.j.j.F.L.F.D.j.j.j.j.d.d.8.d.d.d.d.d.d.d.",
"L L Q / | 1.| | | | | ( #.+.+.+.] ] +.~ ~ | | | /  .j.F.F. XoX XoXN.j.F.j.j.j.j.j.F.L.U.Y.H.j.d.d.d.d.f.d.d.d.y.y. .y.d.",
"Q ^ / | y.y. .y.y.y.u.@.O.@.O.O.~ ] +.@.k.Z.k.| | 2.h.R.R.L.m.N.N.m.h.j.d.8.j.j.h.h.h.h.2. .d.d.d.d.d.g.g.g.g.d.k.k.l.Z.",
"Q W / | p.p.y.y.@.@.i.a.#.O.#.O.~ O.@.@.i.@.| | | d.2.j.F.j.8.8.d.6.2.d.2.2.8.d.d.d.h.d.d.g.g.k.g.g.g.g.i.$.$.g.l.Z.Z.Z.",
"Q ~ ( +.u.y.y. .] @.@.i.O.~ ~ ~ ~ ~ ~ Q ~ ~ ~ Q | | d.F.j.f.8.2.y.2.y.y.2. . .d.y.d.d.d.y.y.y.y.g.g.g.$.@.i.i.g.i.y.y.y.",
"| +.#.@.y.y.y.@.] ~ O.+.~ ~ ~ ~ ~ ~ ] +.| ~ ( | 2.2.l.j.j.j.d.d.y.2.d.y. .| | 2. .y.d.d.p.y.y.i.g.g.g.i.i.a.i.u.t.y.@.u.",
"( #.i.i.g.g.d.y.y.| O.o.~ o.~ ~ O.O.+.u.t.i.i.k.k.y.l.j.8.l.l.y.y.d.y.y.y.y.y.y.y.y.y.y.y.y.p.k.k.k.i.u.i.g.i.@.@.i.i.a.",
"( O.O.#.@.@.[ @.i.u.o.u.z.u.+.t.i.i.i.@.u.k.a.p.k.y.h.j.D.H.H.l.l.k.g.d.d.d.g.y.y.y.p.p.g.k.g.k.g.i.i.u.a.x.i.u.t.i.k.i.",
"o.t.t.t.t.t.u.i.+.~ +.+.i.a.a.a.a.x.c.g.@.g.g.d.k.d.d.Y.E.W.W.W.Y.h.f.d.y.y.y.@.y.k.k.l.l.k.i.g.x.i.a.C.x.x.i.a.a.k.x.a.",
"o.u.u.t.+.t.t.+.( ( o.+.i.i.t.@.@.@.a.g.i.k.k.d.k.d.y.d.k.E.E.Z.l.j.j.l.l.k.k.a.k.Z.l.l.c.k.k.c.x.x.x.x.a.x.a.k.a.a.k.i.",
"~ ( o.o.o.o.o.( ( i.u.i.@.+.+.@.t.@.t.u.u.i.i.y.@.@. . .y.k.l.j.d.j.l.l.Z.l.k.Z.Z.Z.l.d.k.k.l.k.g.k.a.u.@.a.a.i.y.t.@.@.",
"! ~ ( +.t.o.o.( o.u.+.t.+.O.O.@.t.t.t.t.@.t.u.@.@.@.$.d.d.@.@.d.f.f.f.d.k.k.k.k.k.k.l.d.y.g.k.y.g.p.k.u.t.i.u.t.y.t.+.+.",
"o.+.u.u.u.u.o.o.o.o.o.o.t.o.+.+.o.( ( +.+.| +.| +.| |  . .| } } ..j.j.8.d. .y.| | 2.h.h.2. .2.d.k.k.u.t.u.u.t.t.i.t.t.t.",
"i.i.u.u.u.t.+.o.o.o.o.o.+.o.o.o.( ~ ~ ~ ( ( t.t.+.| | | ' '  .d.f.l.l.l.2.{ ' { | | | 2.| Q ' ' | y.y.y.y.y.t.| ( ( W W ",
"t.t.o.o.t.t.u.o.o.o.o.( X.~ ! ! ! ! ! W W ( ( ( ( | y.y.d.2. .} } } 8.h.2.}  .{ | { P P Q P P P L m ( | ( ( W v l c z z ",
"| t.o.( o.o.t.t.o.o.( ~ ! ! ! ! ! ! ! ! ! W W ^ / 1.p.p.d.2.Q P P ' { } { { { ' ' Q P P m m L Q ( Q W W W W v c v c c c ",
"( ( ( ( ~ ! ! ! ! ! ! ! A A ! ! ! ! W W W W W / Q Y Y T T T P T Q P ) { ) P P ) P P Q P L m m L Q ^ W v v G v v G G v v ",
"Q ! ! ! ! ! ! ! Z ! ! ! A A ! ! ! ! ! W W W W Y T T T T I T T / / K P ) P ) ) ) P P P P L v v v W W W G v c c v G G v v ",
"^ ! ! ! ! ! ! ! V V R V Z V Z A ! ! ! R R R R Y Q / T I J I Y / / Y M P M M M M M P Q P L v v c c v c c G v c c v v v v ",
"^ W W R ! ! R R R R R R Z V Z Z C N C B G G G m L L L Y Y Y L L L L L L m m m v l c v v v G v v G v c c v c v c l l v V ",
"W W R v R v v R B R R R V v V C C N V c v v x j m L L L D D D G G v m v v v m v c z c v v v c v c c z h h c c c V B V R ",
"v W v v v v c c c B R R V l V V V k l l x x x x m L L L D D G G L L m v v v c l c l c v v c c c c k k k k c c V V V C C ",
"v v v v v v v v v v v v l l k c k k l z x x x x v G G G G x v G L W W W W v c c l l c v c c c R F c B c c B R C V V V V ",
"v v v v R R G v v v v v l c c c c k l x x x J x x x x v v z c v G R v l l l l l h h k k 6 6 8 c c k R B C E E E C C C C ",
"x z z c G G v v v v v v v c h k c l l h x x x x z z x v v v v v v R V v l k k l h 5 5 k 6 6 k k c R B C E R E E N N V V ",
"v z h z c z z z c c x v v c h h h h h h L / 1.s.^ z h c c c c c c v l c l h h 5 5 h c c 6 6 k c c B c c C C C C V C V V ",
"G z z z z z h h z z z x z v z c c h z v / -./ ^ G z z c z l c c c z h h h h h h h l v c k 6 k c k c c k B V B c V V Z Z ",
"D c c c c c z h z z z x D G x z z z h h x x x z z z z l h l l c c l h h z z z h : h c c c k c c c l l l V V l l l V V V ",
"D c c c c z z z x x x x D D z h z c z h z x G F S z z l l l k c k l h h h z h : : h l c c h h k z l l l V l l l l l v V ",
"D v v G G v v D Y Q Y / 3.3.L x z z 2 h z z G S z z z l l l l k h k c z z l h q q l l h z z h h z z l v v l l v v v L W ",
"D x j b x x J T v.v.v.V.V.v.3.Y H D z 7 z z c c c z z l V l k k k h l l h j q q q l l j h l h h h h v L v j x n n n L L ",
"J P | } | ,.K ,.6.*.3.5.=.I J L D z z z 7 z z c c c c l V V l l k l l h l h h h j j j m v v h r h x x L L n n n n L L L ",
"5.{ { } <.| T ,.U D I J D x D D D z z z z c c c c v v v v V v k h l h r j r h x t j j j t x t x x J J L J J J K K J J L ",
"K P ) { 6.h.h.,.J I I D D D G D z z z z c c c c c l c l l v V l h z r 9 r r r r r t x t r t x J D D I J I I I J J n x n ",
"P P } _ { <.K J I I I I x x x x z h z z c c k c l c c c c c l l h h r ; e t e e p x p u e i p J D D I J J J I J K J J J ",
"_ ) _ ) ) _ T J I J s s x x z z x x h h h h h z z c c z z h h h 2 r y e e e e u J J J p u y y y p s I f f I %.I J J J J ",
"<.` ` ) T _ U J I J s s t x x x x h h h h z l h h z z z v z h h r h t y t t e u p s I s y u p p p s s s D I *.U J D J J ",
"U K K K _ ;.U f J J J s x x x x x x j r r 0 h h h z z h z h h h h h x x Y Y J p D p y y y y s p d I I s H Y *.U Y I J D ",
"U K K K U K J J J J f u p p p t y e 9 9 r j j 0 h h h : 2 2 r r 2 r r h x r 1 e 1 = 1 , = = e y d I *.D s I H I Y =.=.=.",
"&.T T U J J J U U T _ f J J s p y 9 ; 9 t t j : : : : : : - ; ; - ; - % * % O & O   % & . . * , e e i i d d e 3 3 1 1 - ",
"&.&.,.U U ;.T U U ;._ f J p u y y t t t x t r 9 ; ; r r ; 1 1 1 * * + O O % O O . . . O o O * ; 1 1 1 i 3 > < i 4 1 1 - ",
"&.;.*.U J p p u f U J w e e u p p t x t i 1 % = = ; e ; * , = & O % O .   . $ $ $ $ . O o o O % 1 * # & @ # > 1 > 1 1 ; ",
"g s y s f y u p f s u u e * $ = e p p e 1 *   % % * = % O $ . .   % O .   . $ $ $ $ $ & O o   O = * O O X @ . . % = * * "
};
