/* XPM */
static char *_92156c341404cfb952b30eb5cac827flzcy3jGcYtdRVmW1[] = {
/* columns rows colors chars-per-pixel */
"60 60 189 2 ",
"   c None",
".  c #0B0402",
"X  c #0C0A0D",
"o  c #09070A",
"O  c #140C0C",
"+  c #1D0E0A",
"@  c #1C110D",
"#  c #0F0D11",
"$  c #110E13",
"%  c #121116",
"&  c #161519",
"*  c #18171B",
"=  c #1B191D",
"-  c #181412",
";  c #3D0F0E",
":  c #25130D",
">  c #2B160F",
",  c #2C1913",
"<  c #291E1A",
"1  c #271813",
"2  c #331B12",
"3  c #391E14",
"4  c #2D231F",
"5  c #35241E",
"6  c #39221A",
"7  c #3E2A1E",
"8  c #1E1D21",
"9  c #211E23",
"0  c #242226",
"q  c #2D2624",
"w  c #262429",
"e  c #29252B",
"r  c #2B292D",
"t  c #322825",
"y  c #332D2B",
"u  c #3F322B",
"i  c #2E2B31",
"p  c #322E34",
"a  c #362F3A",
"s  c #343136",
"d  c #3B3333",
"f  c #363339",
"g  c #3B363D",
"h  c #3D383F",
"j  c #3D3936",
"k  c #461012",
"l  c #5F1616",
"z  c #651718",
"x  c #731B1B",
"c  c #44362D",
"v  c #4C3B2E",
"b  c #4D3427",
"n  c #583826",
"m  c #433931",
"M  c #4D3E36",
"N  c #443B39",
"B  c #6C2520",
"V  c #7E2324",
"C  c #653D2A",
"Z  c #7A3F32",
"A  c #5E412B",
"S  c #4B433D",
"D  c #5C4A3C",
"F  c #544539",
"G  c #6C492F",
"H  c #6A4A33",
"J  c #775236",
"K  c #73543F",
"L  c #3E3A41",
"P  c #3D3740",
"I  c #423D44",
"U  c #454146",
"Y  c #464249",
"T  c #4A454C",
"R  c #4D484F",
"E  c #4A4542",
"W  c #5D4B41",
"Q  c #554842",
"!  c #4E4951",
"~  c #524D53",
"^  c #544B5B",
"/  c #555156",
"(  c #575259",
")  c #5A555C",
"_  c #5C595D",
"`  c #634E43",
"'  c #635442",
"]  c #6C5544",
"[  c #6E5648",
"{  c #755B48",
"}  c #695B55",
"|  c #745853",
" . c #726254",
".. c #7B6455",
"X. c #786A57",
"o. c #7F7158",
"O. c #5B5461",
"+. c #5F5961",
"@. c #615C63",
"#. c #6B656C",
"$. c #666068",
"%. c #776E67",
"&. c #6D6771",
"*. c #6E6870",
"=. c #726D75",
"-. c #756E79",
";. c #7C7577",
":. c #881F1E",
">. c #8C4232",
",. c #865F3E",
"<. c #896549",
"1. c #966947",
"2. c #9D714C",
"3. c #876A55",
"4. c #97675E",
"5. c #88705D",
"6. c #9A7250",
"7. c #9D785F",
"8. c #A5744D",
"9. c #A7784F",
"0. c #A9784F",
"q. c #936E6E",
"w. c #877866",
"e. c #827568",
"r. c #8C7A77",
"t. c #927E7E",
"y. c #977168",
"u. c #A07D66",
"i. c #B58154",
"p. c #B68459",
"a. c #8E8068",
"s. c #9D836E",
"d. c #89837F",
"f. c #978575",
"g. c #AC866A",
"h. c #A58C79",
"j. c #C08957",
"k. c #C28B59",
"l. c #7D7681",
"z. c #817A85",
"x. c #89818D",
"c. c #848281",
"v. c #8E8592",
"b. c #9A979B",
"n. c #948D99",
"m. c #A59889",
"M. c #BB9C82",
"N. c #B6AA9C",
"B. c #B9AA90",
"V. c #AAA49D",
"C. c #9F97A4",
"Z. c #B99FA0",
"A. c #A8A6A5",
"S. c #B7ABA6",
"D. c #B9B1A6",
"F. c #B8B8B9",
"G. c #C39F81",
"H. c #D1AC8E",
"J. c #D4B99D",
"K. c #D6B190",
"L. c #C9A78A",
"P. c #CBBEAC",
"I. c #C7BAA8",
"U. c #C1BFBF",
"Y. c #D3BCA2",
"T. c #CEC0AE",
"R. c #DDC6AE",
"E. c #D5C1AA",
"W. c #C8C1B9",
"Q. c #D4C6B6",
"!. c #DED1BD",
"~. c #E3C3A7",
"^. c #E8CEB8",
"/. c #E4D2BC",
"(. c #F0D5BA",
"). c #C2C2C1",
"_. c #DAD9D9",
"`. c #E5D6C2",
"'. c #EBDBC5",
"]. c #EADDCA",
"[. c #F3DEC6",
"{. c #F5E4CC",
"}. c #F9E6CD",
"|. c #FCE8CF",
" X c #FFEBD2",
".X c #FEEFDC",
"XX c #FAEFE0",
"oX c #FAF1E6",
"OX c #FCFDFC",
/* pixels */
"                                                                                                                        ",
"                                                                                                                        ",
"                                        g f g g g g g f r                                                               ",
"                                    s g g g g g g g g g i 8 8                                                           ",
"                                f g g g g g g g g g g g f e g g g g g f                                                 ",
"                              g h h h h g g g g g g g g g g g g g g g g g                                               ",
"                            L I L L h h h h h g g g g g g g g g g g g h h L                                             ",
"                          I Y I I I I L L h h h h h h h h h h h h h h h I T !                                           ",
"                        ( ) T Y Y U I I I I L L L L L L h h h L L L L Y z.z.~ h                                         ",
"                        z.z.) R T T Y Y U T I I I I I I I I g f I ~ T T v.=.-.U                                         ",
"                      &.C.x.+.~ +.! R T &._ Y Y T U T ! Y ! I w T -.T ( @.! #.T Y                                       ",
"                      n.#.@./ *.~ U $.#.x.( I T ) I l.~ L O.p r T v.) ~ T T T T T                                       ",
"                    @.;./ ~ _ ( w ~ b.#.#._ f ( ~ s =.Y s @.e f i x.~ R T R R R R T                                     ",
"                    _ ( ~ R ~ w h @.=.L ( L g / ! e _ N 0 @.r s 9 -.! R R T T R R T                                     ",
"                    ~ ~ R R g * T / R r T 9 L ) h 0 T ..* ~ p 9 = ) ! T T T T T T T                                     ",
"                    ~ ~ Y ! 9 r U ~ w g f & I / 9 0 R g.= I f * * L T T T Y Y Y Y Y L                                   ",
"                  U ! R I L % f g L % Y = W s Y % 9 | K.t i g % % s T Y U I I I I I I                                   ",
"                  I T Y I i % h s 8 * g q 3.s r % 0 u.(.W = g % # i Y I I I f I L g h                                   ",
"                  I U I I w * s w % 0 8 7.` f % % d H. Xh.% p % $ e I I L g r h f f Y                                   ",
"                  U I L h 8 * r % % d D ~.M r * u { R.'.E.t = % $ e h f h e e f p s g                                   ",
"                  I L g g = * w * m d G. Xm = y [ L. X X|.3.% % % e f i h 8 w e 0 p h                                   ",
"                  f h g f = * 0 * ` g.}. Xy 8 s.3./.!.I./.~.q % % r r i g & w 9 = p g                                   ",
"                  h h g f = t 9 9 y } T. X0 M J.J.N._ Y o j D % % p 9 i i % w * % s                                     ",
"                  f f g p 8 M 0 A.=.% d '.0 M.[.}.Q.)._ / $ X X * p * p 9 % 9 % % f                                     ",
"                    p g p 9 ] *.A.= # 9 P...{. X XXX_.r = # 9 f & i & s * % * % * g                                     ",
"                    r f s 0 e.S._.w e f P.^. X X X.X_.P a e p ;.W 9 * e % % % % 9                                       ",
"                    e p p e 5.{.oX@.^ ;.}. X X X X XoX#.^ O.#.R.M * = 8 % % % % e                                       ",
"                    e w w 0 [ E. X'.`.{. X X X X X X X`.T.P.'.R.e & * * & % % &                                         ",
"                      * = e O m. X X X X}. X X X X X X X X X Xm.8 = = * * * * =                                         ",
"                      = * w % f. X X X X X X X X X X X X X X}.N 8 8 = = = = w                                           ",
"                      8 0 8 9 y '. X X X X[.^. X X X X X X XI.0 0 8 = 8 0   0                                           ",
"                      r   8 w $ q N.}. X X X}. X X X X X XT.E 0 w r 0                                                   ",
"                            r 0 = X E Q.].}. X X X}./.Y.s.s 0 0   w                                                     ",
"                                i       h...4.y.4.3.6.k.1.y                                                             ",
"                                        { J z z l G 8.8.1.<.                                                            ",
"                                        <.1.x z z 1.i.j.p.J                                                             ",
"                                        2.K ` l B 8.i.k.p.k.                                                            ",
"                                        i.U.Z.:.>.p.9.0.0.S F.                                                          ",
"                                      1.6.b.r.k C 2.2.H j.{ F.                                                          ",
"                                      2.3.b.} ; C v c.H G 9.g.                                                          ",
"                                      <.] _.| ; n A ' n G k.k.                                                          ",
"                                        D OXV x Z p.,.n n H                                                             ",
"                                        } OXS.q.t.U.} S                                                                 ",
"                                        Q A.V.d.D.t.Q E                                                                 ",
"                                      v C n [ { n b 6 1                                                                 ",
"                                      1 : : 1 1 : > 2 :                                                                 ",
"                                      3 2 O > , > , 2 2 <                                                               ",
"                                      , > c ' D  .` v 7 4                                                               ",
"                                        D.`.B.X.r.f...F c                                                               ",
"                                        %.e. .v   X.m.o.m                                                               ",
"                                        [ f.w.X.  D.].a.5                                                               ",
"                                        D T.w.F     X.M 2                                                               ",
"                                        6 3 > t     6 : .                                                               ",
"                                          + . -       @ .                                                               ",
"                                          @ : O       6 2 =                                                             ",
"                                          6 3 @         3 q                                                             ",
"                                          5 3 1         6 <                                                             ",
"                                            3           5 1                                                             ",
"                                            2           5 @                                                             ",
"                                            <                                                                           "
};
