/* XPM */
static char *result[] = {
/* columns rows colors chars-per-pixel */
"60 60 124 2 ",
"   c #0F0A04",
".  c #130C06",
"X  c #170F08",
"o  c #180F09",
"O  c #171009",
"+  c #1D130B",
"@  c #23160B",
"#  c #26180D",
"$  c #2A1A0D",
"%  c #241A11",
"&  c #2C1C11",
"*  c #311F12",
"=  c #2D2015",
"-  c #2C231B",
";  c #342215",
":  c #392517",
">  c #3E2817",
",  c #352519",
"<  c #3A2619",
"1  c #37281F",
"2  c #3D291B",
"3  c #2F2620",
"4  c #342A22",
"5  c #3C2E25",
"6  c #3C3127",
"7  c #3D312A",
"8  c #432D1D",
"9  c #49311E",
"0  c #412F23",
"q  c #453122",
"w  c #4B3423",
"e  c #4E3826",
"r  c #42352E",
"t  c #4B3729",
"y  c #4D3A2C",
"u  c #503723",
"i  c #543A26",
"p  c #533D2B",
"a  c #593F2B",
"s  c #473A31",
"d  c #4A3C34",
"f  c #4D3F38",
"g  c #5B412E",
"h  c #4F4137",
"j  c #4E4039",
"k  c #564232",
"l  c #5B4532",
"z  c #5D4834",
"x  c #54463E",
"c  c #57483D",
"v  c #5C493A",
"b  c #60442F",
"n  c #6B4A2F",
"m  c #614733",
"M  c #634A35",
"N  c #694C33",
"B  c #644D3A",
"V  c #684F3A",
"C  c #724F33",
"Z  c #67503D",
"A  c #6B523D",
"S  c #70553F",
"D  c #574941",
"F  c #5A4B40",
"G  c #604F46",
"H  c #635144",
"J  c #6B5543",
"K  c #6F5945",
"L  c #64544A",
"P  c #6B5B4D",
"I  c #725740",
"U  c #735B46",
"Y  c #735E4B",
"T  c #6D5B51",
"R  c #725F53",
"E  c #77604C",
"W  c #7D634C",
"Q  c #736154",
"!  c #7C6753",
"~  c #7F6852",
"^  c #796659",
"/  c #7D6B5C",
"(  c #816750",
")  c #806853",
"_  c #826D5D",
"`  c #83705F",
"'  c #887059",
"]  c #92755B",
"[  c #836E60",
"{  c #867162",
"}  c #8A7565",
"|  c #8F7863",
" . c #8D7768",
".. c #8E7968",
"X. c #977E64",
"o. c #937C6C",
"O. c #96806E",
"+. c #9C846C",
"@. c #978475",
"#. c #9A8472",
"$. c #9F8875",
"%. c #9E8A7A",
"&. c #A28C76",
"*. c #A48D7A",
"=. c #A7907A",
"-. c #AB937D",
";. c #AF987F",
":. c #AE9681",
">. c #AF9882",
",. c #B49B83",
"<. c #B89F87",
"1. c #B49E8A",
"2. c #B89F88",
"3. c #B9A186",
"4. c #BDA48A",
"5. c #BCA493",
"6. c #BFAD9F",
"7. c #C1A78E",
"8. c #C3AA8D",
"9. c #C5AB93",
"0. c #CBAF9A",
"q. c #D3B9A2",
"w. c #D9BCA6",
"e. c None",
/* pixels */
"e.e.e.e.e.e.e.e.e.e.e.e.e.e.e.e.e.e.e.e.e.e.e.e.e.e.e.e.e.n n e.e.e.e.e.e.e.e.e.e.e.e.e.e.e.e.e.e.e.e.e.e.e.e.e.e.e.e.e.",
"e.e.e.e.e.e.e.e.e.e.e.e.e.e.e.e.e.e.e.e.e.e.e.e.e.e.e.e.u N n C e.e.e.e.e.e.e.e.e.e.e.e.e.e.e.e.e.e.e.e.e.e.e.e.e.e.e.e.",
"e.e.e.e.e.e.e.e.e.e.e.e.e.e.e.e.e.e.e.e.e.e.e.e.e.e.e.p 2 y y e N e.e.e.e.e.e.e.e.e.e.e.e.e.e.e.e.e.e.e.e.e.e.e.e.e.e.e.",
"e.e.e.e.e.e.e.e.e.e.e.e.e.e.e.e.e.e.e.e.e.e.e.e.e.e.e.k } #.=.<.y e.e.e.e.e.e.e.e.e.e.e.e.e.e.e.e.e.e.e.e.e.e.e.e.e.e.e.",
"e.e.e.e.e.e.e.e.e.e.e.e.e.e.e.e.e.e.e.e.e.e.e.e.e.e.e.` { Q / ..| e.e.e.e.e.e.e.e.e.e.e.e.e.e.e.e.e.e.e.e.e.e.e.e.e.e.e.",
"e.e.e.e.e.e.e.e.e.e.e.e.e.e.e.e.e.e.e.e.e.e.e.e.e.e.] U *.[ =.9.~ e Y e.e.e.e.e.e.e.e.e.e.e.e.e.e.e.e.e.e.e.e.e.e.e.e.e.",
"e.e.e.e.e.e.e.e.e.e.e.e.e.e.e.e.e.e.e.e.e.e.e.Z i , 8 z H @.:.| M 2 & ; Y e.e.e.e.e.e.e.e.e.e.e.e.e.e.e.e.e.e.e.e.e.e.e.",
"e.e.e.e.e.e.e.e.e.e.e.e.e.e.e.e.e.e.e.e.e.A < # + & i i 8 k y e g : 1 @ # q Y e.e.e.e.e.e.e.e.e.e.e.e.e.e.e.e.e.e.e.e.e.",
"e.e.e.e.e.e.e.e.e.e.e.e.e.e.e.e.e.e.e.e.V 1 @ # @ q 9 < i u u i > : a % $ # , ! *.e.e.e.e.e.e.e.e.e.e.e.e.e.e.e.e.e.e.e.",
"e.e.e.e.e.e.e.e.e.e.e.e.e.e.e.e.e.e.J 2 & # + + # e u 9 * $ & $ < e g & + + & & p ;.e.e.e.e.e.e.e.e.e.e.e.e.e.e.e.e.e.e.",
"e.e.e.e.e.e.e.e.e.e.e.e.e.e.e.e.e.M 8 & * * $ @ = , 8 i u ; * > i 8 < # @ & , & $ U ,.e.e.e.e.e.e.e.e.e.e.e.e.e.e.e.e.e.",
"e.e.e.e.e.e.e.e.e.e.e.e.e.e.e.e.V < & & & * * * $ + % : u 9 9 u < ; + $ * & ; * & ; m 3.e.e.e.e.e.e.e.e.e.e.e.e.e.e.e.e.",
"e.e.e.e.e.e.e.e.e.e.e.e.e.e.e.e.i ; $ $ $ $ # $ * $ * $ $ $ * * * & $ $ # $ & * ; * < X.e.e.e.e.e.e.e.e.e.e.e.e.e.e.e.e.",
"e.e.e.e.e.e.e.e.e.e.e.e.e.e.e.o.w * $ $ * $ # $ @ @ $ $ & # # * $ $ $ $ $ & @ + & $ $ g e.e.e.e.e.e.e.e.e.e.e.e.e.e.e.e.",
"e.e.e.e.e.e.e.e.e.e.e.e.e.e.e.e.8 & * + X $ # $ $ $ # $ $ $ & $ # * * % + o - 4 @ $ $ 2 ;.e.e.e.e.e.e.e.e.e.e.e.e.e.e.e.",
"e.e.e.e.e.e.e.e.e.e.e.e.e.e.e.W 8 , +   r 4 + X # @ & * $ $ & $ & # @ . & P #.[ 3 + $ 2 +.e.e.e.e.e.e.e.e.e.e.e.e.e.e.e.",
"e.e.e.e.e.e.e.e.e.e.e.e.e.e.e.A & @   O G [ R D 5 . + + + + . + + O 7 x O.4.;.Q -   # > +.e.e.e.e.e.e.e.e.e.e.e.e.e.e.e.",
"e.e.e.e.e.e.e.e.e.e.e.e.e.e.e.8 @ @   4 { ..*.2.*.[ ^ G P P 4 Q _ o.3.4.9.4.$.O.d . X = +.e.e.e.e.e.e.e.e.e.e.e.e.e.e.e.",
"e.e.e.e.e.e.e.e.e.e.e.e.e.e.e.< , & o s ..o.[ :.5.9.7.,.&.o.}  .$.-.>.,.=.O.4.3.c + = + J e.e.e.e.e.e.e.e.e.e.e.e.e.e.e.",
"e.e.e.e.e.e.e.e.e.e.e.e.e.e.e.u , & # f ..o. .o.o.o.o.#.4.2. .>.4.} &.;.>.>.4.3.f + ; ; U e.e.e.e.e.e.e.e.e.e.e.e.e.e.e.",
"e.e.e.e.e.e.e.e.e.e.e.e.e.e.e.g < $ & c o.o.o. .%.*.[ o.w.q.o.9.-.o.4.4.,.8.8.,.t # $ ; X.e.e.e.e.e.e.e.e.e.e.e.e.e.e.e.",
"e.e.e.e.e.e.e.e.e.e.e.e.e.e.e.M < & & Y o.o.o.o.o.o. .[ 4.9. .,.o.$.9.4.3.8.8.3.B $ # , ' e.e.e.e.e.e.e.e.e.e.e.e.e.e.e.",
"e.e.e.e.e.e.e.e.e.e.e.e.e.e.e.b * $ 0 } o.o.o.o.o.o.%.} :.9.o.9.O.;.4.3.8.8.8.<.E < @ ; g e.e.e.e.e.e.e.e.e.e.e.e.e.e.e.",
"e.e.e.e.e.e.e.e.e.e.e.e.e.e.e.a & @ w e.:.o.o.o.o.o.o.[ o.:.^ ,...4.8.4.8.8.4.@.e.p @ ; a e.e.e.e.e.e.e.e.e.e.e.e.e.e.e.",
"e.e.e.e.e.e.e.e.e.e.e.e.e.e.) w & # t e.e.:.o.o.&.o.o.o.o.0.*.2.-.3.8.-.8.8.=.e.e.p # * w e.e.e.e.e.e.e.e.e.e.e.e.e.e.e.",
"e.e.e.e.e.e.e.e.e.e.e.e.e.e.e.9 $ $ t e.e.5.&.#.o.o.o.-.;.o.*.o.8.*.8.4.;.8.=.e.e.p $ ; 8 e.e.e.e.e.e.e.e.e.e.e.e.e.e.e.",
"e.e.e.e.e.e.e.e.e.e.e.e.e.e.e.w ; & i e.e.e.o.o.o.:.8.8.8.,._ 7.8.8.8.8.8.;.X.e.e.v $ ; e e.e.e.e.e.e.e.e.e.e.e.e.e.e.e.",
"e.e.e.e.e.e.e.e.e.e.e.e.e.e.e.e * * e.e.e.e.} o.2.9.8.8.8.7.;.7.8.8.8.8.8.<.^ e.e.w $ ; q e.e.e.e.e.e.e.e.e.e.e.e.e.e.e.",
"e.e.e.e.e.e.e.e.e.e.e.e.e.e.e.w $ * e.e.e.T  .o.8.8.8.8.8.8.7.8.8.8.8.8.8.8.#.e.e.q & ; w e.e.e.e.e.e.e.e.e.e.e.e.e.e.e.",
"e.e.e.e.e.e.e.e.e.e.e.e.e.e.e., . + e.e.e.L  .&.8.8.8.8.8.8.<.8.8.8.8.8.8.8.*.e.e.e.& # 0 e.e.e.e.e.e.e.e.e.e.e.e.e.e.e.",
"e.e.e.e.e.e.e.e.e.e.e.e.e.e.N 1 @ & e.e.e.L } -.8.8.8.8.8.8.7.8.8.8.8.8.8.4.@.e.e.e.o X , e.e.e.e.e.e.e.e.e.e.e.e.e.e.e.",
"e.e.e.e.e.e.e.e.e.e.e.e.e.e.I 2 * , v e.e.F { ;.8.8.8.8.8.4.' 8.8.8.8.8.8.=.{ e.e./ & # < W e.e.e.e.e.e.e.e.e.e.e.e.e.e.",
"e.e.e.e.e.e.e.e.e.e.e.e.e.e.J < $ $ l e.e.D R &.9.7.8.8.,.[ 4 &.8.8.8.8.;.o.R e.e.Y * ; > V e.e.e.e.e.e.e.e.e.e.e.e.e.e.",
"e.e.e.e.e.e.e.e.e.e.e.e.e.e.A 0 ; $ e e.e.e.c Q o.$.#. .T 7 + 7 [ >.,.*.o.R x e.e.l $ ; < e.e.e.e.e.e.e.e.e.e.e.e.e.e.e.",
"e.e.e.e.e.e.e.e.e.e.e.e.e.e.M < ; $ e.e.e.k 0 d x c x x j & @ # f x H L x 5 p e.e.k $ $ , E e.e.e.e.e.e.e.e.e.e.e.e.e.e.",
"e.e.e.e.e.e.e.e.e.e.e.e.e.e.! > & $ e.e.e.M > ; 5 4 5 5 & . . . & 5 5 r , $ k e.e.p # & < o.e.e.e.e.e.e.e.e.e.e.e.e.e.e.",
"e.e.e.e.e.e.e.e.e.e.e.e.e.e.e.2 * $ e.e.e.e.2 # $ @ $ * o .     & & $ $ $ $ Z e.e.e.* ; 8 e.e.e.e.e.e.e.e.e.e.e.e.e.e.e.",
"e.e.e.e.e.e.e.e.e.e.e.e.e.e.Y 8 * * e.e.e.e.9 $ @ @ @ @ $ o . @ # @ @ @ $ $ B e.e.e.* ; 8 e.e.e.e.e.e.e.e.e.e.e.e.e.e.e.",
"e.e.e.e.e.e.e.e.e.e.e.e.e.e.e.p ; * e.e.e.e.g $ $ $ @ @ $ * @ * + # @ @ @ 2 e.e.e.e.* ; w #.e.e.e.e.e.e.e.e.e.e.e.e.e.e.",
"e.e.e.e.e.e.e.e.e.e.e.e.e.e.e.W , ; e.e.e.e.A $ @ $ @ o @ a 8 * + # $ $ $ 8 e.e.e.e.$ , B e.e.e.e.e.e.e.e.e.e.e.e.e.e.e.",
"e.e.e.e.e.e.e.e.e.e.e.e.e.e.e.( , $ e.e.e.e.g ; @ $ @ + # z S > @ @ @ $ $ < e.e.e.e.* ; ( e.e.e.e.e.e.e.e.e.e.e.e.e.e.e.",
"e.e.e.e.e.e.e.e.e.e.e.e.e.e.e.U , ; e.e.e.e.b ; $ $ @ + + M e.; @ @ $ @ # 2 e.e.e.E * * ' e.e.e.e.e.e.e.e.e.e.e.e.e.e.e.",
"e.e.e.e.e.e.e.e.e.e.e.e.e.e.e.e.2 & M e.e.e.S > $ $ @ @ # z e.* + @ @ $ $ 9 e.e.e.J $ ; e.e.e.e.e.e.e.e.e.e.e.e.e.e.e.e.",
"e.e.e.e.e.e.e.e.e.e.e.e.e.e.e.e.w & i e.e.e.e.8 $ @ @ # ; U e.8 $ + $ # $ e e.e.e.p $ ; e.e.e.e.e.e.e.e.e.e.e.e.e.e.e.e.",
"e.e.e.e.e.e.e.e.e.e.e.e.e.e.e.e.B $ e e.e.e.e.w $ $ @ @ 9 e.e.M $ @ $ @ = Z e.e.e.9 $ q e.e.e.e.e.e.e.e.e.e.e.e.e.e.e.e.",
"e.e.e.e.e.e.e.e.e.e.e.e.e.e.e.e.M & q ' e.e.e.M @ $ @ @ i e.e.e.* @ $ @ w e.e.e.e.8 $ e e.e.e.e.e.e.e.e.e.e.e.e.e.e.e.e.",
"e.e.e.e.e.e.e.e.e.e.e.e.e.e.e.e.e $ : / e.e.e.e.* $ $ @ B e.e.e.8 # $ $ q e.e.e.e.< $ 8 e.e.e.e.e.e.e.e.e.e.e.e.e.e.e.e.",
"e.e.e.e.e.e.e.e.e.e.e.e.e.e.e.e.g * $ e.e.e.e.e.8 @ @ * B e.e.e.> $ + $ 8 e.e.e.e.; ; 8 e.e.e.e.e.e.e.e.e.e.e.e.e.e.e.e.",
"e.e.e.e.e.e.e.e.e.e.e.e.e.e.e.e.I , * M e.e.e.e.p X . @ B e.e.e., + . + e.e.e.e.J * : u e.e.e.e.e.e.e.e.e.e.e.e.e.e.e.e.",
"e.e.e.e.e.e.e.e.e.e.e.e.e.e.e.e.! 8 & e.e.e.e.e.e.+ . o k e.e.e.; .   = e.e.e.e.Z ; ; u e.e.e.e.e.e.e.e.e.e.e.e.e.e.e.e.",
"e.e.e.e.e.e.e.e.e.e.e.e.e.e.e.e.e.w * e e.e.e.e.e.& . . y e.e.e.;   X 6 e.e.e.e.e.& , p e.e.e.e.e.e.e.e.e.e.e.e.e.e.e.e.",
"e.e.e.e.e.e.e.e.e.e.e.e.e.e.e.e.e.V A L e.e.e.e.e.8 + + , e.e.p & + # y e.e.e.e.A u g e.e.e.e.e.e.e.e.e.e.e.e.e.e.e.e.e.",
"e.e.e.e.e.e.e.e.e.e.e.e.e.e.e.e.e.@.,.6.e.e.e.e.e.9 $ $ @ p e.w $ $ $ k e.e.e.e.@.' } e.e.e.e.e.e.e.e.e.e.e.e.e.e.e.e.e.",
"e.e.e.e.e.e.e.e.e.e.e.e.e.e.e.e.e.1.4.q.e.e.e.e.e.i $ $ + e e.u @ $ ; A e.e.e.e.0.4.,.e.e.e.e.e.e.e.e.e.e.e.e.e.e.e.e.e.",
"e.e.e.e.e.e.e.e.e.e.e.e.e.e.e.e.e.-.9.e.e.e.e.e.e.A ; # # g e.g @ # 9 e.e.e.e.e.e.8.-.e.e.e.e.e.e.e.e.e.e.e.e.e.e.e.e.e.",
"e.e.e.e.e.e.e.e.e.e.e.e.e.e.e.e.%.,.e.e.e.e.e.e.e.e.> # # e.e.U # @ z e.e.e.e.e.e.e.,.e.e.e.e.e.e.e.e.e.e.e.e.e.e.e.e.e.",
"e.e.e.e.e.e.e.e.e.e.e.e.e.e.e.e.%.>.e.e.e.e.e.e.e.e.i # & e.e.U # $ A e.e.e.e.e.e.e.;.e.e.e.e.e.e.e.e.e.e.e.e.e.e.e.e.e.",
"e.e.e.e.e.e.e.e.e.e.e.e.e.e.e.e.e.1.e.e.e.e.e.e.e.e.U $ : e.e.W = * e.e.e.e.e.e.e.e.1.e.e.e.e.e.e.e.e.e.e.e.e.e.e.e.e.e.",
"e.e.e.e.e.e.e.e.e.e.e.e.e.e.e.e.e.1.e.e.e.e.e.e.e.e.Y $ 8 e.e.e.$ 8 e.e.e.e.e.e.e.e.3.e.e.e.e.e.e.e.e.e.e.e.e.e.e.e.e.e.",
"e.e.e.e.e.e.e.e.e.e.e.e.e.e.e.e.e.e.e.e.e.e.e.e.e.e.e.# w e.e.e.& p e.e.e.e.e.e.e.e.e.e.e.e.e.e.e.e.e.e.e.e.e.e.e.e.e.e."
};
