/* XPM */
static char *_36aa1345d9747c39a7ffc79951fb5152roeZXRV8yj2wfy0[] = {
/* columns rows colors chars-per-pixel */
"60 60 193 2 ",
"   c None",
".  c #0D0805",
"X  c #160C05",
"o  c #1A0E06",
"O  c #100E0B",
"+  c #1C0F09",
"@  c #1D1007",
"#  c #13100E",
"$  c #1C120B",
"%  c #1E1610",
"&  c #1B1714",
"*  c #23140B",
"=  c #29160D",
"-  c #2C190E",
";  c #26180F",
":  c #311B0F",
">  c #251A13",
",  c #2B1B12",
"<  c #231D1A",
"1  c #331D12",
"2  c #391F12",
"3  c #1C211B",
"4  c #2C221B",
"5  c #2F2117",
"6  c #362116",
"7  c #3B2214",
"8  c #33231A",
"9  c #3A261A",
"0  c #3C291C",
"q  c #1D352E",
"w  c #1E2B27",
"e  c #2E2925",
"r  c #362B24",
"t  c #3B342B",
"y  c #253D37",
"u  c #432615",
"i  c #492917",
"p  c #452A1B",
"a  c #4B2B1A",
"s  c #462817",
"d  c #512D1A",
"f  c #4F301E",
"g  c #54311E",
"h  c #58341F",
"j  c #462E20",
"k  c #4B3525",
"l  c #4D3A2A",
"z  c #453428",
"x  c #533421",
"c  c #5A3621",
"v  c #533A26",
"b  c #5D3924",
"n  c #563C2A",
"m  c #4A3F32",
"M  c #603C27",
"N  c #633E29",
"B  c #5D422D",
"V  c #494137",
"C  c #584331",
"Z  c #584939",
"A  c #5D513E",
"S  c #64412C",
"D  c #69432E",
"F  c #6B4631",
"G  c #6D4B34",
"H  c #674E39",
"J  c #724C36",
"K  c #69533A",
"L  c #7C5A3E",
"P  c #785338",
"I  c #294F44",
"U  c #3B6459",
"Y  c #554F44",
"T  c #675945",
"R  c #6B5A4A",
"E  c #685B45",
"W  c #7F5842",
"Q  c #675F52",
"!  c #456359",
"~  c #6F654C",
"^  c #79644B",
"/  c #7C6B56",
"(  c #786655",
")  c #61685B",
"_  c #506E66",
"`  c #716D68",
"'  c #787064",
"]  c #815D3D",
"[  c #8C643F",
"{  c #825B44",
"}  c #855F48",
"|  c #8C6544",
" . c #8A674B",
".. c #946D4A",
"X. c #956A44",
"o. c #9C744F",
"O. c #8D6D51",
"+. c #877657",
"@. c #9D7551",
"#. c #977758",
"$. c #A3764E",
"%. c #AB7A4E",
"&. c #A47954",
"*. c #AD7C52",
"=. c #A27D5B",
"-. c #B07F52",
";. c #847565",
":. c #877A66",
">. c #AE736D",
",. c #C3535D",
"<. c #E9717C",
"1. c #5F8B7E",
"2. c #69837D",
"3. c #9D835E",
"4. c #AF8257",
"5. c #B38255",
"6. c #BD8857",
"7. c #BA875A",
"8. c #968669",
"9. c #9F976F",
"0. c #8C8679",
"q. c #9F9276",
"w. c #958974",
"e. c #A58862",
"r. c #A79579",
"t. c #BC9975",
"y. c #B78D67",
"u. c #C38E5A",
"i. c #C8905A",
"p. c #C39166",
"a. c #CDA57D",
"s. c #F97B87",
"d. c #7F8080",
"f. c #739E93",
"g. c #73978D",
"h. c #73A094",
"j. c #86928E",
"k. c #9F9C89",
"l. c #989894",
"z. c #888886",
"x. c #AB9E85",
"c. c #A39685",
"v. c #A19C96",
"b. c #8CA49D",
"n. c #96A19E",
"m. c #B6A98D",
"M. c #BBAF94",
"N. c #B2AD93",
"B. c #B2A1A2",
"V. c #BEBFBE",
"C. c #B0B7AA",
"Z. c #D7928B",
"A. c #C4A38E",
"S. c #C4AA88",
"D. c #D6AD83",
"F. c #CCBB8C",
"G. c #C6B495",
"H. c #D6BE9B",
"J. c #E2B39A",
"K. c #C8BCA6",
"L. c #D0BFA1",
"P. c #C2BFB4",
"I. c #99C2B7",
"U. c #DBC29D",
"Y. c #C9C393",
"T. c #E4C197",
"R. c #D5C4A3",
"E. c #DBCAA7",
"W. c #D8D3A1",
"Q. c #D6D0A1",
"!. c #CBC1B0",
"~. c #E1C7A1",
"^. c #E9CDA5",
"/. c #E9D5AE",
"(. c #E3D8AC",
"). c #F1D8AF",
"_. c #ECD8B5",
"`. c #EBD9B5",
"'. c #F4DCB5",
"]. c #F8DEB6",
"[. c #E7E3AF",
"{. c #E8E4B0",
"}. c #F7E1B9",
"|. c #FBE3BA",
" X c #F9E0B7",
".X c #B2DBD0",
"XX c #BFE4DB",
"oX c #CECEC7",
"OX c #D7D9D7",
"+X c #E8DFCB",
"@X c #FBE9C7",
"#X c #FCFDFB",
"$X c #FCF6E9",
/* pixels */
"                                                                                                                        ",
"                                                                                                                        ",
"                                                                                                                        ",
"                                                p s a d d d d d a j   0 j                                               ",
"                                            r e 1 1 7 i d d d d d d d a p                                               ",
"                                            x g d d d d d d d d d d d d i 6 % % <                                       ",
"                                        S b c h g d d d d d d d d d d d d : @ >                                         ",
"                                      G D N b c h g d d d d d d d d d d d a i 7 - $                                     ",
"                                  k p S { { F N b c h g g d d d d d d d d d g S a 7 $                                   ",
"                                  6 N  .{ G G G M b G { D g M g d d N N d D d P N g 1 $                                 ",
"                                8 b F D S F P N b 7 P }  .c c N g c { } g G b b M c a @                                 ",
"                                v b M a c F N N 1 + D S  .c f F c c { W c b S c b b c 7 @                               ",
"                                c g a s b b c f 0 @ x b S M 1 N b b F M D b b g b b x * ,                               ",
"                              k s i - g h 7 g = | 6 7 i c c 7 a c c b b b b b s b b u o @ 8                             ",
"                              a - 1 7 i s = u = 7.B = 7 : g i = g g h h a g c 7 c c a o X t                             ",
"                              7 = @ i 7 = 1 = B p...X 1 o i d o a i d g 7 i a - d g s o X &                             ",
"                            j * * @ i : = v o ..^.p.8 * @ = d = : u d d - u u * s a : * X $                             ",
"                            0 X o * s * v n , a.|.T.L X k o u 2 * 7 a a * 7 7 @ u s * = X @                             ",
"                            8 X o * u X ] v k ^.|.|.D.9 9 v @ s X 7 7 i @ 2 - o s 2 o * X X                             ",
"                            > $ @ * 7 * &.v ^ |.|.|. X=.@ 4., - X 1 - s o : * o s = o o X @                             ",
"                            e > * * 7 9 =.k r.|.|.|.].U.l H C * = 1 - u X - o @ u o o X X $                             ",
"                              > = = 7 n D.R ( /.|.|./.w.T V H.^ = 0 1 1 o = o = 1 o o o @ e                             ",
"                              4 > , 1 k 8.8.Q r.|.|.}.].|.w.0.Q 3 < 0 = @ = @ 1 = @ @ @ $                               ",
"                                4 , V V d.w Y R.|.|.|.|.E.l.V._ 2.I q . * ; * 1 * * * * 4                               ",
"                                4 8 T z.j.2.I ) |.|.|.|.|.oXV._ _ y U 3 j , 1 , > , > ,                                 ",
"                                    :.C.n.U y ! |.|.|.|.|.$XOX1.h._ f.V H , , , , , , ,                                 ",
"                                    U.`.oXg.I.b.}.|.|.|.|.@X#Xb..XXXC.~./ 0 m.].A , ,                                   ",
"                                    t./.`.l.j.C.|.|.|.|.|.|.@XP.0.k./.|.T ( t.)./ 5 4                                   ",
"                                    r.G.].|.|.|.|.|.|.|.|.|.|.|.'.].|.|.( p.y.'.T r                                     ",
"                                      x.|.|.|.|.|.|.|.|.|.|.|.|.|.|.|.|.H.S.U.R.r                                       ",
"                                        |.|.|.|.|.v.B.>.'.|.|.|.|.|.|._.r.r.m.                                          ",
"                                        L.|.|.|.|.>.,.s.Z.|.|.|.|.|.G.z e                                               ",
"                                            (.|.|.J.<.s.Z.|.|.|.^.M.e 4                                                 ",
"                                                G.E.A.A.R.H.x.:.                                                        ",
"                                            M.      K n &.| 6.5.                                                        ",
"                                          L./.x.  @.| K  .H *.o.O.                                                      ",
"                                            ^.m.  %.X.+.:.O.*.i.5.L                                                     ",
"                                          #.y.#.6.X.e.9.8.3.%.u.5.[                                                     ",
"                                            4.o.P | F.(.[.F.$.5.6.R                                                     ",
"                                            6.] C ..Q.{.{.W.$.@.7./ l.                                                  ",
"                                             .    @.{.{.{.{. .` O.u.=.                                                  ",
"                                                @.e.{.{.{.Y.L &.G 4.6.                                                  ",
"                                                  ^ W.W.M.+.E K   ..i.                                                  ",
"                                                  l E ~ ^ n A       i.5.                                                ",
"                                                0 9 4 Z r , 1 <     6.5.                                                ",
"                                                8 = @ = - - 1 ,     #.*.                                                ",
"                                                1 1 + = 1 1 2 6     R.~.                                                ",
"                                                9 0 k T q./ l ,                                                         ",
"                                                :.c.:.T ' ;.R C                                                         ",
"                                                ( ;.;.m   / :.A t                                                       ",
"                                                0.P.K.~   N.+X;.t                                                       ",
"                                                Y !.x.      c.Z 4 #                                                     ",
"                                                6 z 6       7 2 . O                                                     ",
"                                                7 = ,         1 + O                                                     ",
"                                                  X #         O X %                                                     ",
"                                                  - <           1 =                                                     ",
"                                                  2             9 -                                                     ",
"                                                  1               1                                                     ",
"                                                  *               @ &                                                   ",
"                                                                                                                        "
};
