/* XPM */
static char *result[] = {
/* columns rows colors chars-per-pixel */
"60 60 189 2 ",
"   c #0B0402",
".  c #0C0A0D",
"X  c #09070A",
"o  c #140C0C",
"O  c #1D0E0A",
"+  c #1C110D",
"@  c #0F0D11",
"#  c #110E13",
"$  c #121116",
"%  c #161519",
"&  c #18171B",
"*  c #1B191D",
"=  c #181412",
"-  c #3D0F0E",
";  c #25130D",
":  c #2B160F",
">  c #2C1913",
",  c #291E1A",
"<  c #271813",
"1  c #331B12",
"2  c #391E14",
"3  c #2D231F",
"4  c #35241E",
"5  c #39221A",
"6  c #3E2A1E",
"7  c #1E1D21",
"8  c #211E23",
"9  c #242226",
"0  c #2D2624",
"q  c #262429",
"w  c #29252B",
"e  c #2B292D",
"r  c #322825",
"t  c #332D2B",
"y  c #3F322B",
"u  c #2E2B31",
"i  c #322E34",
"p  c #362F3A",
"a  c #343136",
"s  c #3B3333",
"d  c #363339",
"f  c #3B363D",
"g  c #3D383F",
"h  c #3D3936",
"j  c #461012",
"k  c #5F1616",
"l  c #651718",
"z  c #731B1B",
"x  c #44362D",
"c  c #4C3B2E",
"v  c #4D3427",
"b  c #583826",
"n  c #433931",
"m  c #4D3E36",
"M  c #443B39",
"N  c #6C2520",
"B  c #7E2324",
"V  c #653D2A",
"C  c #7A3F32",
"Z  c #5E412B",
"A  c #4B433D",
"S  c #5C4A3C",
"D  c #544539",
"F  c #6C492F",
"G  c #6A4A33",
"H  c #775236",
"J  c #73543F",
"K  c #3E3A41",
"L  c #3D3740",
"P  c #423D44",
"I  c #454146",
"U  c #464249",
"Y  c #4A454C",
"T  c #4D484F",
"R  c #4A4542",
"E  c #5D4B41",
"W  c #554842",
"Q  c #4E4951",
"!  c #524D53",
"~  c #544B5B",
"^  c #555156",
"/  c #575259",
"(  c #5A555C",
")  c #5C595D",
"_  c #634E43",
"`  c #635442",
"'  c #6C5544",
"]  c #6E5648",
"[  c #755B48",
"{  c #695B55",
"}  c #745853",
"|  c #726254",
" . c #7B6455",
".. c #786A57",
"X. c #7F7158",
"o. c #5B5461",
"O. c #5F5961",
"+. c #615C63",
"@. c #6B656C",
"#. c #666068",
"$. c #776E67",
"%. c #6D6771",
"&. c #6E6870",
"*. c #726D75",
"=. c #756E79",
"-. c #7C7577",
";. c #881F1E",
":. c #8C4232",
">. c #865F3E",
",. c #896549",
"<. c #966947",
"1. c #9D714C",
"2. c #876A55",
"3. c #97675E",
"4. c #88705D",
"5. c #9A7250",
"6. c #9D785F",
"7. c #A5744D",
"8. c #A7784F",
"9. c #A9784F",
"0. c #936E6E",
"q. c #877866",
"w. c #827568",
"e. c #8C7A77",
"r. c #927E7E",
"t. c #977168",
"y. c #A07D66",
"u. c #B58154",
"i. c #B68459",
"p. c #8E8068",
"a. c #9D836E",
"s. c #89837F",
"d. c #978575",
"f. c #AC866A",
"g. c #A58C79",
"h. c #C08957",
"j. c #C28B59",
"k. c #7D7681",
"l. c #817A85",
"z. c #89818D",
"x. c #848281",
"c. c #8E8592",
"v. c #9A979B",
"b. c #948D99",
"n. c #A59889",
"m. c #BB9C82",
"M. c #B6AA9C",
"N. c #B9AA90",
"B. c #AAA49D",
"V. c #9F97A4",
"C. c #B99FA0",
"Z. c #A8A6A5",
"A. c #B7ABA6",
"S. c #B9B1A6",
"D. c #B8B8B9",
"F. c #C39F81",
"G. c #D1AC8E",
"H. c #D4B99D",
"J. c #D6B190",
"K. c #C9A78A",
"L. c #CBBEAC",
"P. c #C7BAA8",
"I. c #C1BFBF",
"U. c #D3BCA2",
"Y. c #CEC0AE",
"T. c #DDC6AE",
"R. c #D5C1AA",
"E. c #C8C1B9",
"W. c #D4C6B6",
"Q. c #DED1BD",
"!. c #E3C3A7",
"~. c #E8CEB8",
"^. c #E4D2BC",
"/. c #F0D5BA",
"(. c #C2C2C1",
"). c #DAD9D9",
"_. c #E5D6C2",
"`. c #EBDBC5",
"'. c #EADDCA",
"]. c #F3DEC6",
"[. c #F5E4CC",
"{. c #F9E6CD",
"}. c #FCE8CF",
"|. c #FFEBD2",
" X c #FEEFDC",
".X c #FAEFE0",
"XX c #FAF1E6",
"oX c #FCFDFC",
"OX c None",
/* pixels */
"OXOXOXOXOXOXOXOXOXOXOXOXOXOXOXOXOXOXOXOXOXOXOXOXOXOXOXOXOXOXOXOXOXOXOXOXOXOXOXOXOXOXOXOXOXOXOXOXOXOXOXOXOXOXOXOXOXOXOXOX",
"OXOXOXOXOXOXOXOXOXOXOXOXOXOXOXOXOXOXOXOXOXOXOXOXOXOXOXOXOXOXOXOXOXOXOXOXOXOXOXOXOXOXOXOXOXOXOXOXOXOXOXOXOXOXOXOXOXOXOXOX",
"OXOXOXOXOXOXOXOXOXOXOXOXOXOXOXOXOXOXOXOXOXOXOXe d f g f f f d g OXOXOXOXOXOXOXOXOXOXOXOXOXOXOXOXOXOXOXOXOXOXOXOXOXOXOXOX",
"OXOXOXOXOXOXOXOXOXOXOXOXOXOXOXOXOXOXOXOXOX7 7 i f f f f f f f f f a OXOXOXOXOXOXOXOXOXOXOXOXOXOXOXOXOXOXOXOXOXOXOXOXOXOX",
"OXOXOXOXOXOXOXOXOXOXOXOXOXOXOXOXd f f f g f w d f f f f f f g f f f f d OXOXOXOXOXOXOXOXOXOXOXOXOXOXOXOXOXOXOXOXOXOXOXOX",
"OXOXOXOXOXOXOXOXOXOXOXOXOXOXOXL f L f f f f f f f g f f f f f f f g g g f OXOXOXOXOXOXOXOXOXOXOXOXOXOXOXOXOXOXOXOXOXOXOX",
"OXOXOXOXOXOXOXOXOXOXOXOXOXOXK L f f f f f f f f f f f f f g g g g g g P P K OXOXOXOXOXOXOXOXOXOXOXOXOXOXOXOXOXOXOXOXOXOX",
"OXOXOXOXOXOXOXOXOXOXOXOXOXQ Y P K L K f f L g g g L g g g g g K g P P P I I P OXOXOXOXOXOXOXOXOXOXOXOXOXOXOXOXOXOXOXOXOX",
"OXOXOXOXOXOXOXOXOXOXOXOXK ! l.l.U K K K K K K K P g f L L P P P P P U U U Y ) / OXOXOXOXOXOXOXOXOXOXOXOXOXOXOXOXOXOXOXOX",
"OXOXOXOXOXOXOXOXOXOXOXOXP =.*.c.Q Y ~ K a f K K P P P P P P P P U U Y Y T ( l.l.OXOXOXOXOXOXOXOXOXOXOXOXOXOXOXOXOXOXOXOX",
"OXOXOXOXOXOXOXOXOXOXOXU Y @.Q +./ Y =.Y q K Q U T T P T Y Y +.%.Y T Q O.! ) z.V.&.OXOXOXOXOXOXOXOXOXOXOXOXOXOXOXOXOXOXOX",
"OXOXOXOXOXOXOXOXOXOXOXT Q Y Y Y Q ( z.Y u a O.K ! k.P ( Y P o.l.%.#.U ! %.~ +.&.b.OXOXOXOXOXOXOXOXOXOXOXOXOXOXOXOXOXOXOX",
"OXOXOXOXOXOXOXOXOXOXU T T T Q Y Q ! z.u a e O.a U =.a Q / d ) @.@.v.Q q / ) ^ ^ -.+.OXOXOXOXOXOXOXOXOXOXOXOXOXOXOXOXOXOX",
"OXOXOXOXOXOXOXOXOXOXY Q T T T Q Q Q =.7 a e O.9 g ) e Q ~ f M / K *.+.K q ! T ^ ( O.OXOXOXOXOXOXOXOXOXOXOXOXOXOXOXOXOXOX",
"OXOXOXOXOXOXOXOXOXOXT Y Y Y Y Y T Q o.* 7 a ! %  .Y 9 K ( K 7 Y e T ^ T % f T T ! ! OXOXOXOXOXOXOXOXOXOXOXOXOXOXOXOXOXOX",
"OXOXOXOXOXOXOXOXOXK U Y U U U Y Y T K & % a P & f.W 9 7 ^ P % d f q ! I e 7 Q U ! ! OXOXOXOXOXOXOXOXOXOXOXOXOXOXOXOXOXOX",
"OXOXOXOXOXOXOXOXOXP P P P P P U U Y d # $ f u r J.| 7 $ U a E 7 I $ g f d $ K K Q Q I OXOXOXOXOXOXOXOXOXOXOXOXOXOXOXOXOX",
"OXOXOXOXOXOXOXOXOXL L L P d P P P P u @ # f * E /.y.9 # e a  .0 f % 7 a g $ u I U U I OXOXOXOXOXOXOXOXOXOXOXOXOXOXOXOXOX",
"OXOXOXOXOXOXOXOXOXU d d L e d K P P e @ $ i % g.|.G.y $ = d _ 6.8 9 $ q a % 9 I P I I OXOXOXOXOXOXOXOXOXOXOXOXOXOXOXOXOX",
"OXOXOXOXOXOXOXOXOXK i i d w w L d K w @ # * r U.`.T.[ y % e m !.S d $ $ e & 7 K K K I OXOXOXOXOXOXOXOXOXOXOXOXOXOXOXOXOX",
"OXOXOXOXOXOXOXOXOXf i 9 e q 7 L u d w $ $ $ 4.}.|.}.K.[ t * n |.F.s n % q & * f f K P OXOXOXOXOXOXOXOXOXOXOXOXOXOXOXOXOX",
"OXOXOXOXOXOXOXOXOXf i * 7 q % L u e u $ $ w !.^.P.^.~.2.a.7 t |.{.f.` % 9 & & d f g d OXOXOXOXOXOXOXOXOXOXOXOXOXOXOXOXOX",
"OXOXOXOXOXOXOXOXOXOXd $ & w $ u u 8 i $ % S f X R ) S.H.H.m 8 |.Y.{ r 8 8 r & d d g g OXOXOXOXOXOXOXOXOXOXOXOXOXOXOXOXOX",
"OXOXOXOXOXOXOXOXOXOXd $ $ 7 $ 8 i % i % . X # ^ ) (.(.[.].m.q _.s # *.B.9 m & p f d d OXOXOXOXOXOXOXOXOXOXOXOXOXOXOXOXOX",
"OXOXOXOXOXOXOXOXOXOXf & $ % $ $ i % u % d 7 @ 7 e ).XX|.|.[...Y., @ * Z.*.] 8 p f i OXOXOXOXOXOXOXOXOXOXOXOXOXOXOXOXOXOX",
"OXOXOXOXOXOXOXOXOXOXOX9 $ $ $ $ e & 7 E -.u q a g ). X|.|.|.~.Y.d w 8 ).A.w.9 p d u OXOXOXOXOXOXOXOXOXOXOXOXOXOXOXOXOXOX",
"OXOXOXOXOXOXOXOXOXOXOXw $ $ $ $ 7 7 & m T.@./ ~ @.XX|.|.|.|.}.{.-.~ +.XX[.4.q i i w OXOXOXOXOXOXOXOXOXOXOXOXOXOXOXOXOXOX",
"OXOXOXOXOXOXOXOXOXOXOXOX$ $ % % $ % & w T.`.Y.Y.^.|.|.|.|.|.|.}.[._.`.|.R.' 9 9 q w OXOXOXOXOXOXOXOXOXOXOXOXOXOXOXOXOXOX",
"OXOXOXOXOXOXOXOXOXOXOXOX* & & % & 7 & 7 n.|.|.|.|.|.|.|.|.|.|.}.|.|.|.|.n.o e * % OXOXOXOXOXOXOXOXOXOXOXOXOXOXOXOXOXOXOX",
"OXOXOXOXOXOXOXOXOXOXOXOXOXq * * 7 & 7 7 P {.|.|.|.|.|.|.|.|.|.|.|.|.|.|.n.$ q & * OXOXOXOXOXOXOXOXOXOXOXOXOXOXOXOXOXOXOX",
"OXOXOXOXOXOXOXOXOXOXOXOXOXq OX9 7 7 7 7 9 P.|.|.|.|.|.|.|.~.[.}.|.|.|.`.e 8 9 9 7 OXOXOXOXOXOXOXOXOXOXOXOXOXOXOXOXOXOXOX",
"OXOXOXOXOXOXOXOXOXOXOXOXOXOXOXOXOXq w q 9 A Y.|.|.|.|.|.|.{.}.|.|.[.M.0 # q * OXw OXOXOXOXOXOXOXOXOXOXOXOXOXOXOXOXOXOXOX",
"OXOXOXOXOXOXOXOXOXOXOXOXOXOXOXOXOXOXw OXq 9 a a.R.^.}.|.}.|.[.'.W.R . * 9 w OXOXOXOXOXOXOXOXOXOXOXOXOXOXOXOXOXOXOXOXOXOX",
"OXOXOXOXOXOXOXOXOXOXOXOXOXOXOXOXOXOXOXOXOXOXt <.i.1.4.5.t.3. .g.OXOXOXu OXOXOXOXOXOXOXOXOXOXOXOXOXOXOXOXOXOXOXOXOXOXOXOX",
"OXOXOXOXOXOXOXOXOXOXOXOXOXOXOXOXOXOXOXOXOXOX,.<.7.9.F l l l H [ OXOXOXOXOXOXOXOXOXOXOXOXOXOXOXOXOXOXOXOXOXOXOXOXOXOXOXOX",
"OXOXOXOXOXOXOXOXOXOXOXOXOXOXOXOXOXOXOXOXOXOXH i.h.9.<.l l z <.,.OXOXOXOXOXOXOXOXOXOXOXOXOXOXOXOXOXOXOXOXOXOXOXOXOXOXOXOX",
"OXOXOXOXOXOXOXOXOXOXOXOXOXOXOXOXOXOXOXOXOXOXh.u.j.9.7.N l _ J 1.OXOXOXOXOXOXOXOXOXOXOXOXOXOXOXOXOXOXOXOXOXOXOXOXOXOXOXOX",
"OXOXOXOXOXOXOXOXOXOXOXOXOXOXOXOXOXOXOXOXOXD.A 9.9.9.i.:.;.C.E.u.OXOXOXOXOXOXOXOXOXOXOXOXOXOXOXOXOXOXOXOXOXOXOXOXOXOXOXOX",
"OXOXOXOXOXOXOXOXOXOXOXOXOXOXOXOXOXOXOXOXOXD.| h.H 7.1.V j e.v.1.5.OXOXOXOXOXOXOXOXOXOXOXOXOXOXOXOXOXOXOXOXOXOXOXOXOXOXOX",
"OXOXOXOXOXOXOXOXOXOXOXOXOXOXOXOXOXOXOXOXOXf.8.F G l.v V - { b.2.1.OXOXOXOXOXOXOXOXOXOXOXOXOXOXOXOXOXOXOXOXOXOXOXOXOXOXOX",
"OXOXOXOXOXOXOXOXOXOXOXOXOXOXOXOXOXOXOXOXOXj.j.F b E V b - } ).J ,.OXOXOXOXOXOXOXOXOXOXOXOXOXOXOXOXOXOXOXOXOXOXOXOXOXOXOX",
"OXOXOXOXOXOXOXOXOXOXOXOXOXOXOXOXOXOXOXOXOXOXG b b >.i.:.z B oXS OXOXOXOXOXOXOXOXOXOXOXOXOXOXOXOXOXOXOXOXOXOXOXOXOXOXOXOX",
"OXOXOXOXOXOXOXOXOXOXOXOXOXOXOXOXOXOXOXOXOXOXOXOXA { (.l.0.A.oX| OXOXOXOXOXOXOXOXOXOXOXOXOXOXOXOXOXOXOXOXOXOXOXOXOXOXOXOX",
"OXOXOXOXOXOXOXOXOXOXOXOXOXOXOXOXOXOXOXOXOXOXOXOXR S x.A.e.B.Z.W OXOXOXOXOXOXOXOXOXOXOXOXOXOXOXOXOXOXOXOXOXOXOXOXOXOXOXOX",
"OXOXOXOXOXOXOXOXOXOXOXOXOXOXOXOXOXOXOXOXOXOXOXOX< 6 v v [ J Z Z c OXOXOXOXOXOXOXOXOXOXOXOXOXOXOXOXOXOXOXOXOXOXOXOXOXOXOX",
"OXOXOXOXOXOXOXOXOXOXOXOXOXOXOXOXOXOXOXOXOXOXOXOX; 1 : ; < < + + > OXOXOXOXOXOXOXOXOXOXOXOXOXOXOXOXOXOXOXOXOXOXOXOXOXOXOX",
"OXOXOXOXOXOXOXOXOXOXOXOXOXOXOXOXOXOXOXOXOXOXOX, 2 2 1 ; 5 : o > 2 OXOXOXOXOXOXOXOXOXOXOXOXOXOXOXOXOXOXOXOXOXOXOXOXOXOXOX",
"OXOXOXOXOXOXOXOXOXOXOXOXOXOXOXOXOXOXOXOXOXOXOX3 6 c _ | S S v : > OXOXOXOXOXOXOXOXOXOXOXOXOXOXOXOXOXOXOXOXOXOXOXOXOXOXOX",
"OXOXOXOXOXOXOXOXOXOXOXOXOXOXOXOXOXOXOXOXOXOXOXn D ..d.w.X.N.'.S.OXOXOXOXOXOXOXOXOXOXOXOXOXOXOXOXOXOXOXOXOXOXOXOXOXOXOXOX",
"OXOXOXOXOXOXOXOXOXOXOXOXOXOXOXOXOXOXOXOXOXOXOXh 4.n...OXn | X.$.OXOXOXOXOXOXOXOXOXOXOXOXOXOXOXOXOXOXOXOXOXOXOXOXOXOXOXOX",
"OXOXOXOXOXOXOXOXOXOXOXOXOXOXOXOXOXOXOXOXOXOXOX4 q.'.S.OX..q.d.] OXOXOXOXOXOXOXOXOXOXOXOXOXOXOXOXOXOXOXOXOXOXOXOXOXOXOXOX",
"OXOXOXOXOXOXOXOXOXOXOXOXOXOXOXOXOXOXOXOXOXOXOX> m ..OXOXD 4.Y.D OXOXOXOXOXOXOXOXOXOXOXOXOXOXOXOXOXOXOXOXOXOXOXOXOXOXOXOX",
"OXOXOXOXOXOXOXOXOXOXOXOXOXOXOXOXOXOXOXOXOXOXOX  ; 5 OXOXr : 2 5 OXOXOXOXOXOXOXOXOXOXOXOXOXOXOXOXOXOXOXOXOXOXOXOXOXOXOXOX",
"OXOXOXOXOXOXOXOXOXOXOXOXOXOXOXOXOXOXOXOXOXOXOX  + OXOXOX=   O OXOXOXOXOXOXOXOXOXOXOXOXOXOXOXOXOXOXOXOXOXOXOXOXOXOXOXOXOX",
"OXOXOXOXOXOXOXOXOXOXOXOXOXOXOXOXOXOXOXOXOXOX< 1 5 OXOXOXo ; + OXOXOXOXOXOXOXOXOXOXOXOXOXOXOXOXOXOXOXOXOXOXOXOXOXOXOXOXOX",
"OXOXOXOXOXOXOXOXOXOXOXOXOXOXOXOXOXOXOXOXOXOX0 5 OXOXOXOX+ 2 5 OXOXOXOXOXOXOXOXOXOXOXOXOXOXOXOXOXOXOXOXOXOXOXOXOXOXOXOXOX",
"OXOXOXOXOXOXOXOXOXOXOXOXOXOXOXOXOXOXOXOXOXOX, 5 OXOXOXOX< 2 4 OXOXOXOXOXOXOXOXOXOXOXOXOXOXOXOXOXOXOXOXOXOXOXOXOXOXOXOXOX",
"OXOXOXOXOXOXOXOXOXOXOXOXOXOXOXOXOXOXOXOXOXOX< 4 OXOXOXOXOX1 OXOXOXOXOXOXOXOXOXOXOXOXOXOXOXOXOXOXOXOXOXOXOXOXOXOXOXOXOXOX",
"OXOXOXOXOXOXOXOXOXOXOXOXOXOXOXOXOXOXOXOXOXOX+ 4 OXOXOXOXOX1 OXOXOXOXOXOXOXOXOXOXOXOXOXOXOXOXOXOXOXOXOXOXOXOXOXOXOXOXOXOX",
"OXOXOXOXOXOXOXOXOXOXOXOXOXOXOXOXOXOXOXOXOXOXOXOXOXOXOXOXOX, OXOXOXOXOXOXOXOXOXOXOXOXOXOXOXOXOXOXOXOXOXOXOXOXOXOXOXOXOXOX"
};
