/* XPM */
static char *_8dbbdc1a4ad4f3e88d7838e1be99a52rIGAelCuwGG1K48m[] = {
/* columns rows colors chars-per-pixel */
"60 60 229 2 ",
"   c None",
".  c #1C0F0E",
"X  c #0C0605",
"o  c #39110E",
"O  c #291817",
"+  c #331615",
"@  c #36201E",
"#  c #3C2624",
"$  c #440908",
"%  c #4C0A09",
"&  c #5D0C0B",
"*  c #570C0A",
"=  c #591513",
"-  c #630C0B",
";  c #6B0D0C",
":  c #6A0202",
">  c #730E0D",
",  c #7B0E0C",
"<  c #68130E",
"1  c #76120E",
"2  c #7B110E",
"3  c #691915",
"4  c #781613",
"5  c #73251E",
"6  c #61211F",
"7  c #5C3D39",
"8  c #642723",
"9  c #762924",
"0  c #7A3935",
"q  c #7D322F",
"w  c #7A4D44",
"e  c #7C534D",
"r  c #7A5C54",
"t  c #635454",
"y  c #5E4D4C",
"u  c #800000",
"i  c #830F0E",
"p  c #84120E",
"a  c #8A120E",
"s  c #831311",
"d  c #8B1411",
"f  c #8B1B14",
"g  c #861B17",
"h  c #931613",
"j  c #9D1512",
"k  c #941A14",
"l  c #9C1B14",
"z  c #931E1D",
"x  c #960F0F",
"c  c #A31513",
"v  c #A51B15",
"b  c #AB1B14",
"n  c #AC1D18",
"m  c #A91411",
"M  c #BA1B16",
"N  c #B41C1B",
"B  c #BB1E19",
"V  c #B51713",
"C  c #A5110E",
"Z  c #88221B",
"A  c #95231D",
"S  c #992218",
"D  c #AB241D",
"F  c #A6251A",
"G  c #B3231B",
"H  c #BC231B",
"J  c #B72A1E",
"K  c #952E27",
"L  c #98352E",
"P  c #853C37",
"I  c #973A35",
"U  c #872E29",
"Y  c #A52925",
"T  c #A9352C",
"R  c #B73328",
"E  c #B8302D",
"W  c #C31C16",
"Q  c #C61E1B",
"!  c #D71E1B",
"~  c #E81D19",
"^  c #C3241C",
"/  c #CB231D",
"(  c #C9281E",
")  c #D5241D",
"_  c #DB231C",
"`  c #DD2A1D",
"'  c #EF221E",
"]  c #E6211D",
"[  c #C52421",
"{  c #DD2B24",
"}  c #D62823",
"|  c #CD312A",
" . c #C83324",
".. c #D93429",
"X. c #D93B35",
"o. c #EB2522",
"O. c #E42B25",
"+. c #EB2B26",
"@. c #ED2B29",
"#. c #E32624",
"$. c #F12522",
"%. c #F12A29",
"&. c #F12927",
"*. c #EB332A",
"=. c #E83428",
"-. c #F33A2C",
";. c #F4372A",
":. c #E43B32",
">. c #F13E30",
",. c #8F463F",
"<. c #B4443C",
"1. c #A6433B",
"2. c #D14435",
"3. c #E7433D",
"4. c #F74633",
"5. c #FB402E",
"6. c #864A45",
"7. c #994D43",
"8. c #85544C",
"9. c #99564B",
"0. c #875B55",
"q. c #975C54",
"w. c #B34C45",
"e. c #AA544A",
"r. c #B35A4E",
"t. c #A75C53",
"y. c #BE5852",
"u. c #AF4A44",
"i. c #86645B",
"p. c #96665B",
"a. c #A8645A",
"s. c #B8655C",
"d. c #986963",
"f. c #9B756B",
"g. c #957368",
"h. c #A46D64",
"j. c #AA7A6E",
"k. c #A4766B",
"l. c #B1766B",
"z. c #AB7D75",
"x. c #A17973",
"c. c #B2756A",
"v. c #C85B53",
"b. c #D3504A",
"n. c #E8574F",
"m. c #C1695B",
"M. c #E4675D",
"N. c #CC736E",
"B. c #D67169",
"V. c #E76F67",
"C. c #9E8474",
"Z. c #A58274",
"A. c #AD8B7D",
"S. c #AA8579",
"D. c #B4857B",
"F. c #B28B7E",
"G. c #BA8478",
"H. c #C28F7F",
"J. c #E5847A",
"K. c #AC8981",
"L. c #B58A81",
"P. c #AC9786",
"I. c #B49384",
"U. c #B69C8C",
"Y. c #BA988C",
"T. c #BC9C91",
"R. c #BFA08E",
"E. c #9E908F",
"W. c #C18D83",
"Q. c #C69789",
"!. c #CB9F93",
"~. c #D19F94",
"^. c #F48882",
"/. c #C3A394",
"(. c #C9A798",
"). c #D5A699",
"_. c #CBB09E",
"`. c #D0B09C",
"'. c #F8A79A",
"]. c #CAADA2",
"[. c #D8AFA3",
"{. c #CEB3A5",
"}. c #D3B5A5",
"|. c #DAB2A2",
" X c #D5BCAC",
".X c #D5B8A9",
"XX c #D5BEB2",
"oX c #E4B4A5",
"OX c #EBBCAC",
"+X c #E4B7AA",
"@X c #EABFB1",
"#X c #D9C1AE",
"$X c #DCC4B3",
"%X c #DFC9B7",
"&X c #EBC2B4",
"*X c #E2CEBD",
"=X c #EBC7B7",
"-X c #F4CBBA",
";X c #F9CCBA",
":X c #F3C3B4",
">X c #E5D2BF",
",X c #ECD1BD",
"<X c #FAD1BE",
"1X c #F7D3BE",
"2X c #E5C1AF",
"3X c #E5D4C2",
"4X c #EAD5C4",
"5X c #EBDBCB",
"6X c #E9D8C3",
"7X c #FBD5C1",
"8X c #FCDBC5",
"9X c #FDDEC9",
"0X c #F5D7C5",
"qX c #ECDED1",
"wX c #F3DCD2",
"eX c #EFE0CE",
"rX c #FEE2CC",
"tX c #F4E0CD",
"yX c #EEE1D3",
"uX c #F2E5D5",
"iX c #FCE4D2",
"pX c #FEE9D3",
"aX c #FDEBDB",
"sX c #F5E5DA",
"dX c #FFF0DD",
"fX c #FEF1E5",
"gX c #FFF4EB",
"hX c #FFFDFC",
"jX c #FFF7F2",
/* pixels */
"                                                                                                                        ",
"                                                                                                                        ",
"                                                                                                                        ",
"                                                                                                                        ",
"                                                                                                                        ",
"                                    #X              U.%XwXrX7X;XOX).z.                                                  ",
"                            $X6XuX%X%X X        (.sXgXhXjXgXdXrX9X7X;XOXj.    T.(.6XF.                                  ",
"                          F.6XuXuX/.    (.    Q.0XgXhXhXhXjXfXpX9X9X8X;XOXQ.      $X6X.X                                ",
"                            Z.}.*XR.        9 S G.aXhXhXhXjXfXpXrXrX9X8X;XOXY.      $X/.                                ",
"                                          3 F D r.0XfXgXgXfXaXrX8X9XrX9X7X:XoXj.    I.A.                                ",
"                                  _.      S J R <.-XpXaXaXaXrX9X8X7X9X8X7X;X:X|.                                        ",
"                                    >X>Xp.D ..R 2.&X9XrXpXrX7X<X<X;X<X8XOX<X;XOXd.                                      ",
"                                      %Xz. .2...2.OX8X9XrXrX9X-X+X&X-X8X).;X;XOXS.                                      ",
"                                    R.A.L  .=.=.R @X-XrXrXrXrX9X;XOX).oX).oX;XoXD.                                      ",
"                                #X%X.Xr Z ....T c.&X=XrX9XrXrX8X-X(.).Q.H.H.oX|.!.j.                                    ",
"                          {.5X X/./.$XZ.5  .J /.aXaXpXpXrXrXrXrX,X,X|.G.j.L.uXrX;XoX                                    ",
"                        A._.eX>X(.  *XF.).q.q.S.i.r g.F.[.&X7XrXrXpX8XG.j.4XiX@Xf.0.                                    ",
"                        _._.$Xk.  S.S.|.G.k.D.oXo X E.r . @ 7 0.A./.!.L.z.f.e @ O   {.                                  ",
"                        {.uXeX>X3X.XF.,X0.s f |.K D c.O . O @ # # O g.&Xx.t y O o    X3X                                ",
"                        A.4X5X/. X>XI.tXD.a b x.e.` ) f o . O + 3 g j.=XF.g 4 = g w {.(..X                              ",
"                        (.T.$XI.Z.Y.Y.6X|.< b U Q.^ ` ` _ ( ( H l 1 k.iX[.- h d K       T..X                            ",
"                       X5XyX5X%X   X$X`.2X9 G s /.L ;.;.O.) O.=.*.^ /.fX X3 v J u.I.{.  Y.XX].                          ",
"                      }.%XI._.yXyXqX5X3X.Xp.l 1 6.W.v 4.-.-.5.4.-.Y ,XgXwX,.H ^ G.XXyX5X X%X$X                          ",
"                          Z./.uXsX*XA.p.p./.6.Z < W.h.J ;.;.;.*.H P L.x.Y.h.j A K.{.(.5X4X{.d.                          ",
"                            A.}.qXI.      -X8.I.7.8 ~.a.F H v Z D.+Xx.d.S.d.< D.w Z.Z.%X$X/.                            ",
"                              Z.A.x.      @X0.p.A.8.e ).h.9.Q.0X9X2X[.d.z.K.z.q.8.Z.x.A.{.5XT.                          ",
"                                          `.D.f 9.g.C.i.Q.-X7X/.0 8 3 = < 9 x.e     .X5X4X X.X                          ",
"                                          (.(.4 F Y j.C.L.<XF.r 9.e.a.k.U.f.i.8.Y.].XX].Y.Y.K.K.                        ",
"                                          z.@X9 k F G t.iX2Xw C.P.P.U.K.f.,.6.D.      x.f.x.K.                          ",
"                                          3 ).|.U k L wXsX.X6.K 1.w.s.1.A s.+XK.                                        ",
"                                        S O.D W.0XY.{.wX&X[.!.|.G.G.G.Q.+XL.0 8                                         ",
"                                        :.-.O.n h.&X9X&X-X6.4 q 6.d.k.d.6.9 v k                                         ",
"                                      k 4.-.-.+.l 0 &X:X).Z | G ^ n H B j G J s                                         ",
"                                    | ..;.;.-.-.^ 3 P W.d.k | ( O.*.>.{ b n k *                                         ",
"                                   .*.{ { } ..^ k s j 4 < 1 l B / _ ) B d 3 - k                                         ",
"                                R 4.*.) M 1 1 1 9 h M N S k s 1 - P ; s 2 = d #.                                        ",
"                                :.*.+._ b ; $ % 9 h W ) ) G k g 3 7.4 D H a p { N                                       ",
"                              G *.O./ b - $ % % 8 d / *.*.#./ E r.m.b.:.) a 1 / }                                       ",
"                              } -.o.Q     % ; - 3 5 B =.*.*.{ / Z r.Q +.) > > a :.                                      ",
"                            > { O.O.v     - > , j T T ( #.{ ^ A I s.Y ! c - ; j =.                                      ",
"                            k { { n       - c c b b X.B.t.a.y.X.Q B.u.q $ - ; B o.                                      ",
"                            K ..| 9       p _ B v N [ { @.3.J.| <.v.I s   s > D o.                                      ",
"                            L J.v.f         ) +.} ..#.%.@.3.n.X.u.J U >   P I V.'.                                      ",
"                            v W m a >       _ +.+.O.#.+.+...B.v.N.v.4 ;     ; c [                                       ",
"                            D / M a         W +.+.+.O.+.+...M.2.<.K ; >   1 ; h N                                       ",
"                              F ^ d         m ~ o.#.#.#.+.O.n.X.E 3 ,       h N &                                       ",
"                                            C ~ ' ] _ ) ) ! M.n.y.& a                                                   ",
"                                            V ' ' ! j M ! ! 3.N.3 & ,                                                   ",
"                                            V $.$.~ , ; p c a & d > ;                                                   ",
"                                            m $.$.' , ;   % s Q #.s -                                                   ",
"                                            a o.&.o.i -   > / &.$.s                                                     ",
"                                            > o.%.%.d &   s @.%.%.2                                                     ",
"                                              { @.-.S       +.%.O.d                                                     ",
"                                            : V V x -       { @.Q -                                                     ",
"                                            : w.Y g q       N.^.B.P                                                     ",
"                                              z T n 4 $     g E Y * %                                                   ",
"                                                  h -                                                                   ",
"                                                                                                                        ",
"                                                                                                                        ",
"                                                                                                                        "
};
