/* XPM */
static char *result[] = {
/* columns rows colors chars-per-pixel */
"60 60 226 2 ",
"   c #170C0A",
".  c #281614",
"X  c #301A19",
"o  c #2F0F0F",
"O  c #3B2523",
"+  c #4B0B09",
"@  c #460908",
"#  c #570B0B",
"$  c #4C1613",
"%  c #5A1916",
"&  c #51120F",
"*  c #630D0C",
"=  c #6C0D0C",
"-  c #600707",
";  c #730E0D",
":  c #7A0F0D",
">  c #68110E",
",  c #7D110F",
"<  c #73100D",
"1  c #681916",
"2  c #7D1311",
"3  c #761A16",
"4  c #68231E",
"5  c #7B221C",
"6  c #4B3432",
"7  c #4D312D",
"8  c #6E2B27",
"9  c #762C28",
"0  c #783935",
"q  c #6B372F",
"w  c #57413F",
"e  c #74443B",
"r  c #4B4443",
"t  c #714A44",
"y  c #79534C",
"u  c #800000",
"i  c #850F0E",
"p  c #85130F",
"a  c #831511",
"s  c #8B1512",
"d  c #831C16",
"f  c #8C1A16",
"g  c #8F1E19",
"h  c #941412",
"j  c #9B1412",
"k  c #9A1A13",
"l  c #971C16",
"z  c #9D120F",
"x  c #A41613",
"c  c #AD1512",
"v  c #A31C15",
"b  c #AB1A16",
"n  c #A61E1A",
"m  c #B41C16",
"M  c #B41C19",
"N  c #BA1B17",
"B  c #87231C",
"V  c #9A241C",
"C  c #A9261B",
"Z  c #B2231A",
"A  c #BC221C",
"S  c #B92B1E",
"D  c #9B2825",
"F  c #87322C",
"G  c #873A34",
"H  c #953935",
"J  c #902A27",
"K  c #A62A26",
"L  c #B72825",
"P  c #A13C34",
"I  c #B73A34",
"U  c #B23223",
"Y  c #C71D18",
"T  c #D91E1A",
"R  c #E71C19",
"E  c #C3241D",
"W  c #CD241B",
"Q  c #CA291E",
"!  c #D4231D",
"~  c #DB241E",
"^  c #D7291D",
"/  c #EC211E",
"(  c #E1281F",
")  c #F0201C",
"_  c #CB2922",
"`  c #D42622",
"'  c #DC2B23",
"]  c #D82923",
"[  c #C83525",
"{  c #D73327",
"}  c #DA3A35",
"|  c #E42623",
" . c #E42C25",
".. c #EB2B25",
"X. c #EC2C29",
"o. c #EB2823",
"O. c #F12522",
"+. c #F12A29",
"@. c #F12827",
"#. c #EB342A",
"$. c #E83629",
"%. c #F3352A",
"&. c #F43829",
"*. c #F33F31",
"=. c #8C463E",
"-. c #9A443E",
";. c #A4433A",
":. c #BB433A",
">. c #D7443D",
",. c #D6402C",
"<. c #FA422E",
"1. c #E54236",
"2. c #F74533",
"3. c #8B554C",
"4. c #95524A",
"5. c #895953",
"6. c #995A53",
"7. c #904B45",
"8. c #B14A43",
"9. c #A9564B",
"0. c #B5534C",
"q. c #A75953",
"w. c #AB514B",
"e. c #88655D",
"r. c #9D635C",
"t. c #96675B",
"y. c #A96358",
"u. c #B7645B",
"i. c #9C6C63",
"p. c #9C756C",
"a. c #9B796B",
"s. c #9E7971",
"d. c #A76D64",
"f. c #A2736A",
"g. c #A27C6D",
"h. c #A8766A",
"j. c #A27C72",
"k. c #AA7E76",
"l. c #B07C70",
"z. c #C9554D",
"x. c #C9524A",
"c. c #DC675E",
"v. c #E8665F",
"b. c #DA756C",
"n. c #D07067",
"m. c #E26C62",
"M. c #E75953",
"N. c #9E8374",
"B. c #A68274",
"V. c #AB847B",
"C. c #A8897A",
"Z. c #B2837C",
"A. c #B6877A",
"S. c #B0907F",
"D. c #C08B7D",
"F. c #AE8D86",
"G. c #B58C82",
"H. c #BC8D85",
"J. c #B49586",
"K. c #BC9D8C",
"L. c #BA9589",
"P. c #BB9C90",
"I. c #AB9887",
"U. c #BEA293",
"Y. c #9A8988",
"T. c #C38E83",
"R. c #C7978A",
"E. c #D09A8C",
"W. c #C79F92",
"Q. c #D19F95",
"!. c #F08981",
"~. c #C6AA9A",
"^. c #CBAC9D",
"/. c #C7A697",
"(. c #D5AA9C",
"). c #D6A799",
"_. c #CBB19F",
"`. c #ECA899",
"'. c #D6ACA1",
"]. c #CEB3A3",
"[. c #DBB2A5",
"{. c #D4BCAB",
"}. c #D6B7A7",
"|. c #CEB5AA",
" X c #E4BBAC",
".X c #E6B8A8",
"XX c #F1BFAF",
"oX c #E3B6A9",
"OX c #DAC2AE",
"+X c #DCC3B3",
"@X c #DEC9B6",
"#X c #DEC6B8",
"$X c #E9C1AF",
"%X c #EAC2B4",
"&X c #E2CCBA",
"*X c #ECCBBA",
"=X c #E7C8B6",
"-X c #F2C3B3",
";X c #F4CCBB",
":X c #F7CAB9",
">X c #E6D1BD",
",X c #FBD1BE",
"<X c #F7D1BE",
"1X c #F0C1AF",
"2X c #F3CDC0",
"3X c #E4D2C2",
"4X c #EAD5C3",
"5X c #EBDBCB",
"6X c #EAD7C7",
"7X c #FAD5C2",
"8X c #FDDBC6",
"9X c #FDDEC9",
"0X c #F4D8C7",
"qX c #ECDFD2",
"wX c #EFD6C9",
"eX c #FEE2CC",
"rX c #EEE2D3",
"tX c #FEE6D1",
"yX c #FEECDB",
"uX c #F6E6D6",
"iX c #FDEEE3",
"pX c #FEF1E4",
"aX c #FFF3EA",
"sX c #FFF9F5",
"dX c #FFFEFD",
"fX c None",
/* pixels */
"fXfXfXfXfXfXfXfXfXfXfXfXfXfXfXfXfXfXfXfXfXfXfXfXfXfXfXfXfXfXfXfXfXfXfXfXfXfXfXfXfXfXfXfXfXfXfXfXfXfXfXfXfXfXfXfXfXfXfXfX",
"fXfXfXfXfXfXfXfXfXfXfXfXfXfXfXfXfXfXfXfXfXfXfXfXfXfXfXfXfXfXfXfXfXfXfXfXfXfXfXfXfXfXfXfXfXfXfXfXfXfXfXfXfXfXfXfXfXfXfXfX",
"fXfXfXfXfXfXfXfXfXfXfXfXfXfXfXfXfXfXfXfXfXfXfXfXfXfXfXfXfXfXfXfXfXfXfXfXfXfXfXfXfXfXfXfXfXfXfXfXfXfXfXfXfXfXfXfXfXfXfXfX",
"fXfXfXfXfXfXfXfXfXfXfXfXfXfXfXfXfXfXfXfXfXfXfXfXfXfXfXfXfXfXfXfXfXfXfXfXfXfXfXfXfXfXfXfXfXfXfXfXfXfXfXfXfXfXfXfXfXfXfXfX",
"fXfXfXfXfXfXfXfXfXfXfXfXfXfXfXfXfXfXfXfXfXfXfXfXfXfXfXfXfXfXfXfXfXfXfXfXfXfXfXfXfXfXfXfXfXfXfXfXfXfXfXfXfXfXfXfXfXfXfXfX",
"fXfXfXfXfXfXfXfXfXfXfXfXfXfXfXfXfXfXfXfXfXfXfXfXA.oX-X,X8XeXwX].J.fXfXfXfXfXfXfXOXfXfXfXfXfXfXfXfXfXfXfXfXfXfXfXfXfXfXfX",
"fXfXfXfXfXfXfXfXfXfXfXfXfXfXfXfX~.>XJ.~.fXfXR.-X,X7XeXtXpXaXdXsXpX>XS.fXfXfX_.@XOX6XrX&XOXfXfXfXfXfXfXfXfXfXfXfXfXfXfXfX",
"fXfXfXfXfXfXfXfXfXfXfXfXfXfXfX&X>X{.fXU.t.).1X,X8X8XeXyXaXsXdXdXsXpX;XB.fXfXU.fXfX@XuXrXOXfXfXfXfXfXfXfXfXfXfXfXfXfXfXfX",
"fXfXfXfXfXfXfXfXfXfXfXfXfXfXfX].fXfXfXfX[.1X,X8XeXeXeXyXaXsXdXdXsX0X-.B q fXfXfXg.].3XK.B.fXfXfXfXfXfXfXfXfXfXfXfXfXfXfX",
"fXfXfXfXfXfXfXfXfXfXfXfXfXfXfXJ.S.fXfXD..X:X8X8X8X8X8XeXpXaXaXaXyX*XC C V $ fXfXfXfXfXfXfXfXfXfXfXfXfXfXfXfXfXfXfXfXfXfX",
"fXfXfXfXfXfXfXfXfXfXfXfXfXfXfXfXfXfXB.$X:X,X,XeX<X7X8X8XtXyXyXyXeX(.,.C C 3 fXfXfXfXfXfXfXfXfXfXfXfXfXfXfXfXfXfXfXfXfXfX",
"fXfXfXfXfXfXfXfXfXfXfXfXfXfXfXfXfXfXD.1X:X:X*XeX<X:X7X<XeXtXtXeX<XE.,.S [ U K.>X@XfXfXfXfXfXfXfXfXfXfXfXfXfXfXfXfXfXfXfX",
"fXfXfXfXfXfXfXfXfXfXfXfXfXfXfXfXfXfX).-X,X1XoX8X-X$X X<XeXeXeXeX1XE.,.,.[ :.K.@XfXfXfXfXfXfXfXfXfXfXfXfXfXfXfXfXfXfXfXfX",
"fXfXfXfXfXfXfXfXfXfXfXfXfXfXfXfXfXfXR.-X:X`.)..XoX X7XeXeXeXeXeX$X).^ <.Q [ 3./.fXfXfXfXfXfXfXfXfXfXfXfXfXfXfXfXfXfXfXfX",
"fXfXfXfXfXfXfXfXfXfXfXfXfXfXfXfXfXA./.[.[.D.D.E.).[.7X8XeXeXeX8X$X$X;.S { [ $ S.OX@X_.fXfXfXfXfXfXfXfXfXfXfXfXfXfXfXfXfX",
"fXfXfXfXfXfXfXfXfXfXfXfXfXfXfXfXfX:X,XtX*Xg.l.D.=X=X8XeXeXeXeXeXyXyXyXy.[ S e K.OXL.~.>X6X~.fXfXfXfXfXfXfXfXfXfXfXfXfXfX",
"fXfXfXfXfXfXfXfXfXfXfXfXfXfXfXfXF.y L.2XiXW.h.).tXuXtX9X*X%XW.V.y y N.a.4.d.[.^._.fX=X>X5XK.fXfXfXfXfXfXfXfXfXfXfXfXfXfX",
"fXfXfXfXfXfXfXfXfXfXfXfXfXfXfX|.fXo X O p.s.R.k.W.W.s.y 6 . . F.w   e (.Z.t.).}.S.fXfXS.@X_.K.fXfXfXfXfXfXfXfXfXfXfXfXfX",
"fXfXfXfXfXfXfXfXfXfXfXfXfXfX{.3X~.fXo . Y.6 ^. X7 X O O X .   w 9.E d.h.C > (.^.^.OX4X4XrX5XK.fXfXfXfXfXfXfXfXfXfXfXfXfX",
"fXfXfXfXfXfXfXfXfXfXfXfXfXfX{.|.P.4 d % g 8 [. X7.2 $ X .   $ M ^ Q R.F x 5 >XOX/.5X~.].5X{.B.fXfXfXfXfXfXfXfXfXfXfXfXfX",
"fXfXfXfXfXfXfXfXfXfXfXfXfX Xs.fXfXy.l l p 0 2X*Xe p b Q E Q ~ ^ $.V ^.k k q eX}.J.K.C.J.OXK.fXfXfXfXfXfXfXfXfXfXfXfXfXfX",
"fXfXfXfXfXfXfXfXfXfXfXfX{.{.fXfX|.j.Z S a 3.wXiX4... .$.^ ! &.&.{ u.5.S k 3.=X~.@X_.~.>XrXrX6X~.fXfXfXfXfXfXfXfXfXfXfXfX",
"fXfXfXfXfXfXfXfXfXfXfX~.#X{.#XqXrX~.8.E k V.iXaXD.( <.<.%.<.2.<.F ).1 a B S.OX3XqXqXrX6XK.W.>XfXfXfXfXfXfXfXfXfXfXfXfXfX",
"fXfXfXfXfXfXfXfXfXfXfXs.f.&XqX#X~.P.Z.l V G.F.j.A.d W &.%.&.$.V ).3.p 5 l.W.3.a.K.qXuXrXC.B.fXfXfXfXfXfXfXfXfXfXfXfXfXfX",
"fXfXfXfXfXfXfXfXfXfXfXfXfX~.3X~.V.j.e.4.3 k.k.e.S.oX6.B m S B T.f.8 y.a.i.$XfXfXg.|.6X/.F.fXfXfXfXfXfXfXfXfXfXfXfXfXfXfX",
"fXfXfXfXfXfXfXfXfXfXfXfX{.5XL.k.k.j.8 Z.f.Z.k.i.oX*XeX=Xh.7.E.A.e a.N.e ).^.fXfXfXj.C.B.fXfXfXfXfXfXfXfXfXfXfXfXfXfXfXfX",
"fXfXfXfXfXfXfXfXfXfXfX^.|.#X5XqXP.fXq e.5.4 % & 1 8 5.$X7X Xg.y C.t.P B %XZ.fXfXfXfXfXfXfXfXfXfXfXfXfXfXfXfXfXfXfXfXfXfX",
"fXfXfXfXfXfXfXfXfXfXfXF.F.W.F.{.|.^.y p.e.L.P.s.9.8.3.t  X%XN.B.y.C k 0 ;XfXfXfXfXfXfXfXfXfXfXfXfXfXfXfXfXfXfXfXfXfXfXfX",
"fXfXfXfXfXfXfXfXfXfXfXj.F.s.s.j.fXfXfXG.G d.F.I.I.Y.N.s.i.8X&XD C v s r.%XfXfXfXfXfXfXfXfXfXfXfXfXfXfXfXfXfXfXfXfXfXfXfX",
"fXfXfXfXfXfXfXfXfXfXfXfXfXfXfXfXfXfXp.H.[.-.P 0.0.8.I F r.5XyX].l a r.*Xy.fXfXfXfXfXfXfXfXfXfXfXfXfXfXfXfXfXfXfXfXfXfXfX",
"fXfXfXfXfXfXfXfXfXfXfXfXfXfXfXfXfXfXfX1 r.Q.).T.A.D.T.oXH.2X%XrXG.).*Xq.Q { fXfXfXfXfXfXfXfXfXfXfXfXfXfXfXfXfXfXfXfXfXfX",
"fXfXfXfXfXfXfXfXfXfXfXfXfXfXfXfXfXfXfXb s 9 5.f.d.6.G 9 1 F.XX2X8X}.H E #.2.L fXfXfXfXfXfXfXfXfXfXfXfXfXfXfXfXfXfXfXfXfX",
"fXfXfXfXfXfXfXfXfXfXfXfXfXfXfXfXfXfXfXh Q Z b N Z N E Z Q 0 :X:XH.1 E #.%.2.{ d fXfXfXfXfXfXfXfXfXfXfXfXfXfXfXfXfXfXfXfX",
"fXfXfXfXfXfXfXfXfXfXfXfXfXfXfXfXfXfXfX* v v A #.2.#. .L { 1 R.l.9 < ' *.%.%.$.{ K fXfXfXfXfXfXfXfXfXfXfXfXfXfXfXfXfXfXfX",
"fXfXfXfXfXfXfXfXfXfXfXfXfXfXfXfXfXfXfXl # < k W ~ ! E m h > 3 p x < m _ { ! ^ $.$.K fXfXfXfXfXfXfXfXfXfXfXfXfXfXfXfXfXfX",
"fXfXfXfXfXfXfXfXfXfXfXfXfXfXfXfXfXfXL ` > 1 a 2 > G = , f l v N N d 5 , < p ! ' #.*.fXfXfXfXfXfXfXfXfXfXfXfXfXfXfXfXfXfX",
"fXfXfXfXfXfXfXfXfXfXfXfXfXfXfXfXfXfX' N = b Z C 3 =.3 f b A ] W N , 8 @ @ s Y ~ ..#.x.fXfXfXfXfXfXfXfXfXfXfXfXfXfXfXfXfX",
"fXfXfXfXfXfXfXfXfXfXfXfXfXfXfXfXfXfX..v = c ] 1.z.u.0.L ]  .#. .Z < % + + @ s m ~  ...g fXfXfXfXfXfXfXfXfXfXfXfXfXfXfXfX",
"fXfXfXfXfXfXfXfXfXfXfXfXfXfXfXfXfX8.! : = h o.( S 9.b W  .#.#. .j 8 * = # @ fX= ( ..#.n fXfXfXfXfXfXfXfXfXfXfXfXfXfXfXfX",
"fXfXfXfXfXfXfXfXfXfXfXfXfXfXfXfXfX:.~ i = = Y Y H 0.G v ` ' ] L ;.Z s 2 : @ fXfXW $.' _ fXfXfXfXfXfXfXfXfXfXfXfXfXfXfXfX",
"fXfXfXfXfXfXfXfXfXfXfXfXfXfXfXfXfXA | j ; fX% 7.I n.R x.d.q.u.m._ j m j h fXfXfX= E ' ] fXfXfXfXfXfXfXfXfXfXfXfXfXfXfXfX",
"fXfXfXfXfXfXfXfXfXfXfXfXfXfXfXfXfXA | f 2 fX3 = I n.L } !.X.X.` E A j ! T fXfXfXfXD { [ fXfXfXfXfXfXfXfXfXfXfXfXfXfXfXfX",
"fXfXfXfXfXfXfXfXfXfXfXfXfXfXfXfXfXn.`.z.7.fX* = H [ I } c.X.X.X.' _ | ..x fXfXfX< D b.b.fXfXfXfXfXfXfXfXfXfXfXfXfXfXfXfX",
"fXfXfXfXfXfXfXfXfXfXfXfXfXfXfXfXfXD M s * fXfX: G z.n.z.c.] +.X. ...+.o.b fXfXfX, j N W fXfXfXfXfXfXfXfXfXfXfXfXfXfXfXfX",
"fXfXfXfXfXfXfXfXfXfXfXfXfXfXfXfXfXfXM 3 2 fXfX< 3 D 0.>.m.| +.X. .X.X.o.x fXfXfX+ x Y ` fXfXfXfXfXfXfXfXfXfXfXfXfXfXfXfX",
"fXfXfXfXfXfXfXfXfXfXfXfXfXfXfXfXfXfX2 M f fXfX2 * J x.X.v./ | | | | R T fXfXfXfXfXv M V fXfXfXfXfXfXfXfXfXfXfXfXfXfXfXfX",
"fXfXfXfXfXfXfXfXfXfXfXfXfXfXfXfXfXfXfXfXfXfXfXfX= 5 b.} M.T ` ` ~ / / R fXfXfXfXfXfXfXfXfXfXfXfXfXfXfXfXfXfXfXfXfXfXfXfX",
"fXfXfXfXfXfXfXfXfXfXfXfXfXfXfXfXfXfXfXfXfXfXfXfX; # H b.| T Y b c R O.R fXfXfXfXfXfXfXfXfXfXfXfXfXfXfXfXfXfXfXfXfXfXfXfX",
"fXfXfXfXfXfXfXfXfXfXfXfXfXfXfXfXfXfXfXfXfXfXfXfX= i = * j j = = c ) @.) fXfXfXfXfXfXfXfXfXfXfXfXfXfXfXfXfXfXfXfXfXfXfXfX",
"fXfXfXfXfXfXfXfXfXfXfXfXfXfXfXfXfXfXfXfXfXfXfXfX= b ~ M = fXfX; c ) @.) fXfXfXfXfXfXfXfXfXfXfXfXfXfXfXfXfXfXfXfXfXfXfXfX",
"fXfXfXfXfXfXfXfXfXfXfXfXfXfXfXfXfXfXfXfXfXfXfXfX= b +.+.n fXfX= N @.@.T fXfXfXfXfXfXfXfXfXfXfXfXfXfXfXfXfXfXfXfXfXfXfXfX",
"fXfXfXfXfXfXfXfXfXfXfXfXfXfXfXfXfXfXfXfXfXfXfXfX; n +.+.` fXfX< N +.+.Y fXfXfXfXfXfXfXfXfXfXfXfXfXfXfXfXfXfXfXfXfXfXfXfX",
"fXfXfXfXfXfXfXfXfXfXfXfXfXfXfXfXfXfXfXfXfXfXfXfX= n +.X.L fXfX2 [ @.X.M fXfXfXfXfXfXfXfXfXfXfXfXfXfXfXfXfXfXfXfXfXfXfXfX",
"fXfXfXfXfXfXfXfXfXfXfXfXfXfXfXfXfXfXfXfXfXfXfXfXfX2 +.X.L fXfX# - M b j fXfXfXfXfXfXfXfXfXfXfXfXfXfXfXfXfXfXfXfXfXfXfXfX",
"fXfXfXfXfXfXfXfXfXfXfXfXfXfXfXfXfXfXfXfXfXfXfXfXfXw.!.!.q.fXfXfX5 K s q.XfXfXfXfXfXffXfXfXfXfXfXfXfXfXfXfXfXfXfXfXfXfXfX",
"fXfXfXfXfXfXfXfXfXfXfXfXfXfXfXfXfXfXfXfXfXfXfXfX# > L L fXfXfX# h L j J fXfXfXfXfXfXfXfXfXfXfXfXfXfXfXfXfXfXfXfXfXfXfXfX",
"fXfXfXfXfXfXfXfXfXfXfXfXfXfXfXfXfXfXfXfXfXfXfXfXfXfXfXfXfXfXfXfX2 g fXfXfXfXfXfXfXfXfXfXfXfXfXfXfXfXfXfXfXfXfXfXfXfXfXfX",
"fXfXfXfXfXfXfXfXfXfXfXfXfXfXfXfXfXfXfXfXfXfXfXfXfXfXfXfXfXfXfXfXfXfXfXfXfXfXfXfXfXfXfXfXfXfXfXfXfXfXfXfXfXfXfXfXfXfXfXfX",
"fXfXfXfXfXfXfXfXfXfXfXfXfXfXfXfXfXfXfXfXfXfXfXfXfXfXfXfXfXfXfXfXfXfXfXfXfXfXfXfXfXfXfXfXfXfXfXfXfXfXfXfXfXfXfXfXfXfXfXfX",
"fXfXfXfXfXfXfXfXfXfXfXfXfXfXfXfXfXfXfXfXfXfXfXfXfXfXfXfXfXfXfXfXfXfXfXfXfXfXfXfXfXfXfXfXfXfXfXfXfXfXfXfXfXfXfXfXfXfXfXfX"
};
