/* XPM */
static char *result[] = {
/* columns rows colors chars-per-pixel */
"60 60 132 2 ",
"   c #333537",
".  c #34363A",
"X  c #36393C",
"o  c #393B3E",
"O  c #3C3D42",
"+  c #3E4045",
"@  c #414345",
"#  c #484747",
"$  c #494846",
"%  c #43454A",
"&  c #46494D",
"*  c #494B4D",
"=  c #51514F",
"-  c #474A51",
";  c #4B4D52",
":  c #4B4D59",
">  c #4E5155",
",  c #4E5358",
"<  c #525356",
"1  c #585756",
"2  c #5B5957",
"3  c #53555A",
"4  c #56595D",
"5  c #5A5C5D",
"6  c #605F5D",
"7  c #62615F",
"8  c #535760",
"9  c #565B61",
"0  c #5A5D62",
"q  c #5B5F68",
"w  c #5E6165",
"e  c #5E636A",
"r  c #626366",
"t  c #666867",
"y  c #696967",
"u  c #62666B",
"i  c #66696D",
"p  c #696B6D",
"a  c #70716F",
"s  c #626771",
"d  c #656B72",
"f  c #6A6D73",
"g  c #676E78",
"h  c #696F78",
"j  c #6D7175",
"k  c #6D737A",
"l  c #6F787F",
"z  c #727475",
"x  c #767877",
"c  c #797977",
"v  c #72767B",
"b  c #75797E",
"n  c #7B7C7C",
"m  c #7F807F",
"M  c #81807E",
"N  c #6E7780",
"B  c #727781",
"V  c #757B83",
"C  c #7A7E83",
"Z  c #767F88",
"A  c #7B7F88",
"S  c #768087",
"D  c #7D8185",
"F  c #778189",
"G  c #7C838B",
"H  c #7E888E",
"J  c #7E8790",
"K  c #7E8992",
"L  c #838484",
"P  c #878886",
"I  c #888886",
"U  c #81858B",
"Y  c #85898D",
"T  c #8A8C8D",
"R  c #8E908E",
"E  c #92928F",
"W  c #828790",
"Q  c #848C93",
"!  c #898E93",
"~  c #878E98",
"^  c #888F98",
"/  c #879096",
"(  c #8D9295",
")  c #86929A",
"_  c #8B949B",
"`  c #8E999F",
"'  c #929495",
"]  c #979996",
"[  c #91969B",
"{  c #949A9D",
"}  c #9A9C9D",
"|  c #9DA09E",
" . c #A2A29F",
".. c #8C97A0",
"X. c #8E9AA1",
"o. c #9297A0",
"O. c #939CA3",
"+. c #999EA2",
"@. c #96A0A6",
"#. c #9CA2A5",
"$. c #96A1A9",
"%. c #9BA4AB",
"&. c #9EA9AD",
"*. c #9EAAB1",
"=. c #A2A5A5",
"-. c #A6A9A7",
";. c #A9A9A7",
":. c #A1A6AA",
">. c #A4AAAD",
",. c #A9ACAC",
"<. c #AEB0AF",
"1. c #A4ADB2",
"2. c #A9AEB2",
"3. c #A6B1B4",
"4. c #ABB2B4",
"5. c #A5B2B9",
"6. c #ABB4B9",
"7. c #ADB9BE",
"8. c #B2B4B4",
"9. c #B7B8B6",
"0. c #B1B6B9",
"q. c #B4BABC",
"w. c #B9BCBD",
"e. c #AEBAC1",
"r. c #B3BCC3",
"t. c #BABFC1",
"y. c #BEC3C4",
"u. c #C2C7C7",
"i. c #C4C8C6",
"p. c #C6CBCC",
"a. c #CBD0CE",
"s. c #CCD0D0",
/* pixels */
"H / / 0 = z H R R ' | | | |  .-. .R 2 P I E I I M M M 6 @ } 8.w.y.9.;.9.w.q.w.w.' i 1 x U Y ' ' ` ( ( / Y H m e * u p p ",
"b D H 9 ; m D H M M T |  .| ] m a 7 = 7 a a 6 6 7 6 1 = $ I 8.9.8.;.8.8.9.8.8.,.Y ; ; q v b S D Y H Y D m m m 3 o : 3 * ",
"j v v 3 > z m m x y p z c c 7 m M M M m z y r 5 = $ = 1 < 7 a c c T ' ' T L n z i = 3 0 e w w i z x l v z j d i j j r 3 ",
"4 i a p 6 t t 6 $ @ p { 3.<.| i.a.p.p.a.a.i.w.-.y < L  .,.;.' R T M < r y z c n E +.[ ' P i & X 3 Y ' @.%.*.3.3.5.&.o.~ ",
"d m ( ] | -.-.| 5 $ m @.>.3.4.4.i.u.y.y.y.q.0.=.x z -.t.y.w.y.w.y.t.z L Q ( _ [ ! Y Y ! U U , % > ! #.1.3.3.3.1.1.O.o.~ ",
"d j m m H R E | m $ a | #.>.0.| y.y.q.q.6.4.,.-.p z 2.q.u.t.y.w.y.y.C U P Y T ( U Y Y ! P U w & & V _ %.&.&.1.1.:.O...W ",
"t i m m M P R E E < m #.#.%.4.4.4.w.q.8.4.,.4.+.r p 2.9.<.w.<.y.y.y.Y C Y Y Y Y Y Y Q ! Q Y i & % f L ! ` O.{ ..O.O.~ U ",
"t t m m M P E M m = x | #.=.4.-.4.4.<.4.4.4.,.' 6 7 =.2.;.<.t.9.q.q.T j D G D D L W Q Y Y Y D 4 % f G ~ _ ! _ O.o.^ W V ",
"e t z m L P R ' } = c #.=.>.<.>.,.,.,.:.,.>.+.z = w ' 2.8.9.w.9.q.w.( 3 C C C C D G Y ! ! Y C r % i v G W Q Q ! Q G V g ",
"5 i f x m P P T E $ n } #.=.#.#.+.#.;.' ( I a 5 # r b T } =.,.1.>.#.x X i n b b C U Y Y Y Y Y b * 0 k j v Z V Z g u 0 3 ",
"4 w i z n m L L m @ p ' ' L ( R M m c a y p r 1 ; 0 0 1 < 5 w r w 3 0 , w p r 4 t f b b j d u 9 & & 3 3 3 3 4 3 ; % % & ",
"# * 5 w y p a j 6 o 2 6 5 2 i p y = 1 <.t.9.4.>.:.} ! n # C #.,.,._ -.q.q.4.:.e @ ; 3 4 4 w j V U ( / T U U C C j ; ; f ",
"t i i > + $ 1 6 7 P R ( ( } ] | ] p C 9.4.2.>.>.:.+.[ ( 5 } 4.9.r.4.4.q.6.4.#.k 0 Y O.:.,.0.6.4.>.{ o.) ! Q ! ! U v q D ",
"j k v 5 < x ( ( ' ' ` | | #.#.#.R p L 2.2.2.>.>.:.o.} ( r C 2.2.q.4.4.4.4.3.,.b i ` 1.4.r.r.e.6.2.@.{ _ ! W W W A x r M ",
"i f j < w n P T ( ( ' ] ' } } } p 7 v ! 2.>.,.=.+.o.[ ' r C O.:.3.3.3.>.>.3.,.v i _ &.6.r.r.7.5.1.O.X.) ) Q W A U b 0 C ",
"u i i > 4 D T P P R R R R ( { P i 4 v ' >.:.:.#.[ [ ' ! r T ! [ { | @.%.>.>.@.j t G >.q.e.7.3.*.O.X.) ) _ ! U A A b 5 C ",
"0 w e ; + m m m H m m m K K S m r 3 C ,.-.&.#.#.[ ! ! I p b U I K / ' | $.%.| i 3 H | *.e.5.$.$.O._ ~ W W W A C v f 6 B ",
"4 0 w = + m m m m m m m m S m e 7 * C :.=.#.#.+.! ! ! T w w j B m D H R ` { / i & f k m K X.$.X._ W A B B A B z i r : i ",
"+ ; > + + e t 6 m m m & m , m 8 @ % i D D U Q P z D L v ; + * < 1 3 w f x z i e + w 9 9 8 e N S h s u r q 0 8 3 : < # : ",
"+ + > , > 0 1 = @   + ; K m K K G G C z i t > + > w u u i i u r e 5 O X O ; e S *.3.X./ K s 8 8 , , 8 3 : O i U L L M b ",
"H X.&.&.&.-.3.3.&.| m 0 K K K K X.X.{ | { ` p $ / { | @.O.@.( @.| ` 0 X + m $.5.y.y.y.5.*.K K K H l N v s 1 8.o.T C B n ",
"K ` X.X.@.-.3.,.3.q.m m K F K K ) ) _ ( ( D 5 ( | %.&.>.2.{ @.4.>.-./ = 3 K &.*.5.5.5.5.*.K K K K H B l f B ;.' ! U n v ",
"H H ) { @.@.&.3.5.$.& m S S S S Q Q / / ( { 2 %.&.>.3.3.%.5.6.4.3.3.1.f > m @.&.$.5.*.*.K K K K Q H G v q I } ! W L C z ",
"H / / ) ` @.&.3.K 9 , e S S S S H H Y / / D < R >.3.7.3.@.7.7.6.3.3.3.` ; e ` @.X.K K K K K K $.J H G C 6 p ! L n B z k ",
"G H W Q _ O.O.+./ 4 j m m m m S S S S H H m 1 Y 3.6.r.3.3.y.5.5.3.*.1.{ > & g S H K H K H G H G G G D D u * i x j z z f ",
"l V V D Q Y Q ( a 4 i d e e q m m m m m m f 5 ( 3.6.r.3.7.5.5.5.&.&.&.' w + 5 m H H G G S C V V D D D D i < % r r f i u ",
"3 0 0 i i j i f > > 0 u e m q m e g z j w 0 < | -.3.3.&.5.3.*.@.@.| R a 5 X @ 4 i f i i d u 4 0 u i p 0 < ; @ O < < < : ",
", + @ * 3 4 4 < + + + + + + & , 4 9 3 ; = * 4 R ' ` R ` X.` / H F m e e 0 ; ; > > * & @ @ + 0 p w 0 e j V ! L 3 # 0 0 5 ",
"i & * i G _ ` Q H d ; @ o X   X + + @ @ $ + 1 e 0 < 1 e e u u 0 w 9 v ( %.#.<.@.H k e 9 O O Y +.} +.+.:.} +.[ i < v v j ",
"j 4 & k H _ X.&.5.*.@.K S S K m 4 4 3.q.0.0.8.4.| D { R m D m 0 > | >.6.8.6.3.%.X.K l i ; % v ( ` } o.[ o.+.' C 5 j C v ",
"u & > l Q _ @.%.$.@.@.@.@.@.` ` r R -.-.#.>.>.%.| @.&.#.| &.@.| r D &.>.>.1.%.@.@.` Y H r , i G ^ ! U ^ o.( ! D r r V v ",
"i - > S / _ ` ` X.@.$.@.@.@.X.K p ` | ` #.@.| X.| | #.#.T / T z 5 4 Q ` | @.&.$.@.X.` ) V < 4 g G Q ^ _ W G C V f < j v ",
"w & 4 V H / _ X.@.@.$.$.%.| ` j < m ] } } { { { ' [ +.} ( D z i < @ D #.&.&.>.%.%.$.X.) C 3 : w k D G Q W G V v r * 0 f ",
"3 + - j H _ ` X.$.%.$.$.@.X.` g < f Y ( ( ( ( ( ' [ [ [ ' ! ' ( p ; k } %.%.*.%.%.+.X.Q v 3 @ , 3 w 9 u r w 0 w w * % * ",
", & > > 4 e l V l K _ X.` / / w * 4 j U P P D P T T T ! T T ! ! z , 4 ( X.O.@.O.o.Q l u Y Y j w 4 > ; , > ; , 3 3 - : , ",
"_ @.O.H -   & 3 & ; 3 w 9 w w + + $ 4 i v v P U Y L D D C D n x w > & l G l r 4 , * + b 5.r.q.&.Q D v v k d s i u u d d ",
") @.$.` 3 + g O.*.X.F @.3.7.3./ u ; % & * 1 r i r w r 0 5 4 ; @ 3 t j x D U Y Y j w > S 1.e.r.6.%.O.` ) W H A Z B B B h ",
"~ ..) J S + e O.$.%.3.5.3.3.&.m 3 ; ; 6 w 0 0 0 w t 3 % < t r n U D D D G T D D m f * g %.5.5.3.*.$.O.$.X.~ W J G l h Z ",
"K K ..X./ * 9 ) $.&.*.3.3.*.| e * 3 r p d f f z k z j ; 4 f f z j b V D U G D D b w - k %.1.1.1.5.*.$.%...) Q K A Z F A ",
"H K ) ) g > w S @.%.&.*.*.$.H w % 3 r d f p f i f f p 3 * u d f z b b D D V V b k 4 - l $.%.%.*.1.*.*.%.X._ K J A F G Z ",
"S K K K e + e l X.X.X.X.X.K m 8 X ; w d i i d i f f i , % 3 r i f z v b b b b b j 4 ; k O.%.@.O.+.*.+.O...W G A Z V B N ",
"N N S F w + e w k H K S e 9 , + . % 0 w u r u u r r : # + % 5 r t d f j v k v v j 4 - h / X.X._ W ^ ) W J Z h h s d e r ",
"e e d e , X > , - 9 e m g m K X.b * : 4 4 4 4 , ; # % O O O % ; 4 4 0 d u u q 0 w ; ; r j S k k h s s u e 0 9 0 3 , > 3 ",
": , > & & X O + w S K K K K ` @.! ; O O O O O + % + @ : 9 9 8 % O O r ( ! Y L U D D D Q G D k w = w i M [ ! } U Z v j d ",
"+ + , + & , 0 % 9 l S H K K X.@.C 9 3 s g B A A Z W ~ ^ o.+.+.u O u v { o.o.o.+.O.O.o._ Q ! G t 5 B U Y U U U M V b v j ",
", , 8 e u d g , - d l H K ` X.@.L 9 8 A U W W A W W Q W W ~ ^ f 3 u v _ o.o.^ o.O.O.O.{ ! ( V r 5 v c A M M A A C n v v ",
"d g g N N V j 3 > l S F K ` ` X.! r 9 A U W W A C A A Z B B U h 4 r d ! o...o.o.O.O._ _ ! n j u 3 f z v Z A A L V j V V ",
"d g g N V B j w * k S G K / ) ` ^ s 3 V A U W V v h h h f f B B 4 0 d ! ~ ^ o.o.o.o._ Q W V i w 3 f h v z C C j j C V j ",
"d d g S N g g e % f B C A A W ^ ( f : p v v C B v B A A A B f u < < r C W ! ~ ^ ^ ^ ~ W A v j 0 < p i f i r q f L W C h ",
"s s s g d s g e % u p k B k B B v q * : 4 9 q r q f B k B B v q + & 3 u j V V C L A C v j f u 0 : 3 8 0 1 q f v V V v k ",
"q g s e w w w 4 O 0 0 0 8 < * % % @ O O @ % + + % * 8 8 3 3 3 @ O O & : < 4 5 i p w q 0 3 < < : < 5 i 0 * : 3 8 9 0 9 , ",
"+ + + 8 - > 3 , < ; : # # 3 0 i C L U C W U U L A A a O : i h C A V W W ~ ~ ( i ; : < 0 j C [ :.:.:.+.^ Y C % # - % - - ",
": : - @ % 3 j D C A A A f z B B Z A A B W W W W ! W z - u B W A ~ ~ W ! ! ^ ! C : 5 L ! o.o.^ ~ ~ ~ ~ W W U * d Z A Z N ",
"e s e ; * 4 f v C C C C i f h h g k v B V W W W A C r % 8 B A W W ~ ~ ~ ~ W W A 3 8 A W ^ ~ ~ ~ W ~ A W W B % s J ) ..~ ",
"d g d - * 9 i p v B B B f i u d g f k v Z Z A A U B r @ : f B A ~ ~ ^ ! W W W A 3 < b W W T W W W W W A A h % q Z W ~ A ",
"g g d 3 ; r i i f f f z f i u u s i g f h h B B B C r + : k A A W W ^ W W W W V : : z n A W W U J J A B B s - q V Z B Z ",
"d d d 9 * 5 w r i i f f u u w 9 r q r q u s i f f v r & q h V A A W W U U A A k : * s z B z A A A Z B k h q - q g N N N ",
"e u u , O ; ; 9 0 0 5 8 9 w 5 < : > 3 9 0 q e u i r : & 0 i k B B B B C B B f 3 @ % 6 s p s 6 s N h h s q 8 @ 8 q s g g ",
"8 q 3 % O + + * < : : = ; ; ; ; ; : 3 8 8 9 0 0 3 - : + - : 8 8 8 u r u p f p r % @ : 2 6 5 < < , 8 8 9 8 - % : : q s s ",
"+ O O @ % & + % + + O + O O + @ O O O % : 3 < % % @ # * - % O O v } o.^ ^ ~ ~ A z ! W W U W p : % % O O @ % ; : : : - + "
};
