/* XPM */
static char *ad5cfc2c49fc41b1f67b0b6fa9f7bb88CX2HLJ8WEtmkS0IE[] = {
/* columns rows colors chars-per-pixel */
"60 60 228 2 ",
"   c #14100F",
".  c #161211",
"X  c #1D1716",
"o  c #211D1B",
"O  c #2A211E",
"+  c #33231F",
"@  c #272221",
"#  c #2A2625",
"$  c #2D2827",
"%  c #2E2A29",
"&  c #3A2621",
"*  c #332925",
"=  c #322D2C",
"-  c #3C2E2B",
";  c #372723",
":  c #35302F",
">  c #3C312D",
",  c #373131",
"<  c #393333",
"1  c #3E3938",
"2  c #432C25",
"3  c #492E28",
"4  c #42332E",
"5  c #4B332D",
"6  c #53342C",
"7  c #58372F",
"8  c #443531",
"9  c #443934",
"0  c #4B3B34",
"q  c #433D3B",
"w  c #4B3933",
"e  c #533C35",
"r  c #573D36",
"t  c #613C35",
"y  c #4C413C",
"u  c #46403E",
"i  c #54433B",
"p  c #5B453C",
"a  c #5D493E",
"s  c #564037",
"d  c #65463C",
"f  c #72463C",
"g  c #4C4543",
"h  c #4D4946",
"j  c #484342",
"k  c #544A44",
"l  c #5C4B43",
"z  c #534D4A",
"x  c #554844",
"c  c #5C534D",
"v  c #56514F",
"b  c #5A5452",
"n  c #614E43",
"m  c #6A4F43",
"M  c #665145",
"N  c #685346",
"B  c #64534B",
"V  c #6A564A",
"C  c #6D5A4E",
"Z  c #67584F",
"A  c #745849",
"S  c #655A54",
"D  c #6B5C52",
"F  c #655C58",
"G  c #725E53",
"H  c #754B40",
"J  c #6D625C",
"K  c #756155",
"L  c #74645A",
"P  c #7D6A5D",
"I  c #796559",
"U  c #7C604D",
"Y  c #6B6662",
"T  c #6F6A66",
"R  c #766B64",
"E  c #7B716C",
"W  c #77726F",
"Q  c #7D7673",
"!  c #866958",
"~  c #93725A",
"^  c #876C58",
"/  c #816C62",
"(  c #8A6F60",
")  c #8C796C",
"_  c #897567",
"`  c #9A7B62",
"'  c #967B68",
"]  c #837A73",
"[  c #8B7D74",
"{  c #877E7A",
"}  c #917E71",
"|  c #907F79",
" . c #A17D65",
".. c #9C826C",
"X. c #8B837C",
"o. c #85807D",
"O. c #948275",
"+. c #99877A",
"@. c #A38266",
"#. c #AD8C6D",
"$. c #A6866B",
"%. c #B18E6E",
"&. c #A38C7C",
"*. c #A78B75",
"=. c #B58D73",
"-. c #AD937C",
";. c #AE9275",
":. c #B49373",
">. c #BD9C7B",
",. c #B89778",
"<. c #C39D7A",
"1. c #C3A27C",
"2. c #C9A77F",
"3. c #8C8782",
"4. c #938B84",
"5. c #9B8C83",
"6. c #948E89",
"7. c #968B85",
"8. c #96918C",
"9. c #9A928B",
"0. c #9D9792",
"q. c #AB9483",
"w. c #A79689",
"e. c #B39985",
"r. c #B39C8D",
"t. c #BA9E8B",
"y. c #B89A83",
"u. c #A69C95",
"i. c #AE998B",
"p. c #BBA18E",
"a. c #B7A089",
"s. c #AAA39D",
"d. c #A9A198",
"f. c #B3A294",
"g. c #BBA494",
"h. c #BCAB9B",
"j. c #B6A699",
"k. c #ACA6A2",
"l. c #AEAAA4",
"z. c #B2ACA5",
"x. c #B9AFA7",
"c. c #BBB4AE",
"v. c #B6B1AA",
"b. c #BBB6B1",
"n. c #BEBAB5",
"m. c #C59F85",
"M. c #CAA583",
"N. c #C6A48A",
"B. c #D3A98C",
"V. c #C4AA95",
"C. c #C3AC9C",
"Z. c #C5AA97",
"A. c #CCB19E",
"S. c #D9B499",
"D. c #D3B091",
"F. c #C2AEA1",
"G. c #CBB4A3",
"H. c #CDB7A8",
"J. c #CDBAAA",
"K. c #C7B5A5",
"L. c #D4B9A4",
"P. c #D3BCAC",
"I. c #DBBEAB",
"U. c #D8B9A2",
"Y. c #C1BCB8",
"T. c #D4BFB1",
"R. c #DAC1AC",
"E. c #C6C1BC",
"W. c #D6C2B2",
"Q. c #DCC5B3",
"!. c #DDC9BB",
"~. c #DAC8B6",
"^. c #E6C5AB",
"/. c #ECCDB5",
"(. c #E4CCBC",
"). c #E5CAB4",
"_. c #EED1BA",
"`. c #EED1B7",
"'. c #F3D3BA",
"]. c #F7D6BD",
"[. c #F2CDB4",
"{. c #CDC9C6",
"}. c #D1CECC",
"|. c #DDCCC1",
" X c #D6D2CE",
".X c #D5D3D2",
"XX c #D9D7D4",
"oX c #DEDCDB",
"OX c #DDDAD6",
"+X c #E3CFC1",
"@X c #E4D1C4",
"#X c #EBD4C5",
"$X c #E9D6CA",
"%X c #EDDACC",
"&X c #E7D6CA",
"*X c #F1DBCD",
"=X c #F7DCC3",
"-X c #ECDED4",
";X c #E1DFDD",
":X c #E7DAD2",
">X c #F2DED1",
",X c #FCE6CC",
"<X c #F6E2CB",
"1X c #EEE3DB",
"2X c #E5E0DC",
"3X c #F1E4DC",
"4X c #F9E6D4",
"5X c #E6E5E4",
"6X c #ECE7E3",
"7X c #EDE9E6",
"8X c #EFEFEF",
"9X c #EDEDED",
"0X c #EEEDED",
"qX c #F1E7E1",
"wX c #F2EAE4",
"eX c #F2EEEC",
"rX c #F3F0EE",
"tX c gray94",
"yX c #F1F1F1",
"uX c gray95",
"iX c gray96",
"pX c #F4F4F4",
"aX c #F6F6F6",
"sX c gray97",
"dX c #F6F6F5",
"fX c #F3F3F3",
"gX c #F8F8F8",
"hX c #F8F8F8",
/* pixels */
"8XhXtXsXtXhX8XhX8XhXtXsX9X@XC.(.-X3X(.C.(.*X1XhX8XsXtXsXtXsX8XhXtXsXtXsXtXsX8XhXtXsXtXsXtXsX8XsXtXsX8XsXtXsX8XsXtXsXtXsX",
"hX8XsXtXsX8XhX8XhX9XsX7X*XI.x i I P a x J b S _ g.#XfXtXsX8XhX8XsX8XsX8XsX8XhX8XsX8XsXtXsX8XhXtXsX8XhXtXsX8XhXtXsX8XsXtX",
"tXsXtXsXtXsXtXsXrXrX@Xf._ C 9 0 w 0 e 5 4 * * > y P J.wXtXsXtXsXtXsXtXsXtXsXtXsXtXsXtXsXtXsXtXsXtXsXtXsXtXsXtXsXtXsXtXsX",
"sX8XsXtXsX8XsX8X-Xr.K M M l 0 4 8 e s 8 4 i n M M l B r.-XtXsX8XsXtXsXtXsXtXsX8XsXtXsXtXsXtXsXtXsXtXsXtXsXtXsXtXsXtXsXtX",
"8XsXtXsXtXsX8X&XO.B N l 0 > = 8 l M l - i n M M M M M B +.wX8XhXtXsXtXsXtXsX8XsXtXsXtXsXtXsX8XsXtXsX8XsXtXsXtXsXtXsXtXsX",
"hX8XsXtXsX8X_.R ] D a w s i 0 M N N y $ $ * 0 M M M M L D P.hX8XsXtXsX8XsX8XhX8XsXtXsXtXsX8XhXtXsXtXsXtXsX8XsXtXsXtXsXtX",
"tXsXtXsX1Xt.S l V l a n a e M N N M > # $ n i 0 i M V M 7.i.7XsXtXsXtXsXtXsXtXsXtXsXtXsXtXsXtXsXtXsXtXsXtXsXtXsXtXsXtXsX",
"sXtXsXtXwXV.c K M n M M a M N N M i 8 = * y M M n p l M M D #X8XsXtXsXtXsXtXsX%XK.&.q.W.@X#X*X1XsXtXsXtXsXtXsXtXsXtXsXtX",
"8XhXtXsX1X) P K n M M M M N M M a p i 8 i > M M M C a n G K r.hXtXsXtXsXtXwXC.T $ X X o o O 1 F &.!.1XsXtXsX8XsXtXsXtXsX",
"hX8XsXtX@XK C Z V a C C C M M D l V s w M e l M M M G s M C ( 9XsXtXsX8XeXV.b $ * = % # @ @ # # # = ) L.wXtXsXtXsXtXsXtX",
"tXsXtXsXJ.D B K D C K C I V C L P '  .0 M C 9 C n C V Z e l J 3XtXsXtXrXP.{ q < < < < < = # # # % = = q O.$XtXsXtXsXtXsX",
"sX8XsXtXH.B x C l D C V C N G G $.D.B.M G Z l x N V V n l > v %XsXtXfX).] 0.1 j < < < , = $ % $ % , < < = L (.eXsXtXsXtX",
"8XsXtXsXH.B i i 0 n n n n n D ( S.^.^.$.Z l M 9 Z d a p a * b <XtXsX-X+.z < < < < < = $ % = = $ $ # % = < v L $XtXsXtXsX",
"sXtXsXtXP.x i 9 9 a i a a n l N./././.S.n i l G i d s s p * S 1XsXtXW.] < < < < < * # = < = # # % $ % $ 1 F 1 g.tXtXsXtX",
"tXsXtXsX~.y w > > a 4 s p 9 ' /././././.S.i w A =.a s e s $ ^ sXtXeXj.z < < < , % = < < % @ $ # = % % = # , < J 1XsXtXsX",
"sXtXsXtX3Xl k 8 = p - e d M ^.'._.'.'.'.`.e.> n S.! e w e @ r.8XsX3X[ q < < 1 * , < < % # , % % < = % = = $ , j P.tXsXtX",
"8XhXtXsX7XC.O.- * 0 * 0 y.Z.].p./.`./._.L.).e.B =Xt.0 > - q #XhXtX!.J < 1 g = < < 1 = = < , @ = < = # = , = % : r.pXtXsX",
"sXtXsXtXtX1XR.> - > 0 x J J [ q.t./.`.V.+.w.J k R V.i * > ) 3XtXtXH.h < h < < < q , , < < = @ : < , $ = = , % = +.wXtXtX",
"tXsXtXsXtXsX1X/ - 4 ` Q 3.Q Y 9./.'.'.).i.u.8.4.T w.D > ` f.-XsXwX5.b z q < q z 1 , < < 1 $ = < q x B = = < : = L qXtXsX",
"sX8XsXtXsX8XsXV.L a M.x.{..Xk.XX=X'.'.].%Xb.XX;Xk.(.' ^ B.p.fX8X!.z q z < 1 b < , , 1 q q ) 9 < q L t.: , = < , x :XsXtX",
"8XsXtXsXtXhX8X#Xr.=.B.).b.E.Y.4X,X=X].,X,X1Xb.b.P.].B.N.w.#X8X3Xi.: : , : b = * * , q D G.Q.9 1 1 &.).D 1 = , q u |.tXsX",
"sXtXsXtXsXtXsXeXA.i.=./.'./.=X,X,X,X,X,X,X,X=X].].U.*.p.(.tXsXG.c % $ $ < z : 1 < F h.W.C.).< q x G._.O.q 1 < v q P.sXtX",
"tXsXtXsXtXsXtXsXeX<X~.t.U.[.].,X,X=X/.,X,X,X'./.q.R Q.eXtXsX).v % @ # $ q = h h z h +.!.Q.} q v ) C.G.r.h u g h g !.tXsX",
"sXtXsXtXsX8XsX8XsX8XsX1XG.O.N.K.h.R./.L.K.K.p.V.(.@XsXtX3XV.v = q O # = # < q P Q Y j h P.V.= k f.H.=XL.z : $ b +.:XsXtX",
"tXsXtXsXtXsXtXsXtXsXtXsXeX3X-XS.!  .M.` w.<.^.rXtXpXtXsX%Xw.w./.e.@ # $ # $ A m.4.l.o.E.P.O.= +.W.h.w.+.% % = Z (.fXtXsX",
"sXtXsXtXsXtXsXtXsXtXsXtXsXtXC.! ! ,.;.@.` ^ ' F.&XeXpXtXfX1XwXtXJ., # # # o @.'.I.F.|.4X,Xc _ I.E z T W @ # = O.wXtXtXtX",
"tXsXtXsXtXsXtXsXtXsXtXsXtXwXq.$.~ Z.;.` D.,.2.f.7.T.wXsXtXsXtXsX:Xk @ # @ X w U.].'.=X4XW._ #X*Xz.8.n.u @ $ q T.tXsXtXsX",
"sX8XsXtXsX8XsX8XsX8XsXtXrX~.*.<.;.p.N.#.2.#.<.1.a.;.g.1XwX1XwX8XrXq.o @ X . . * } ^.=X<XJ.<X4X,XR.(.D.n # = r.6XsXtXsXtX",
"tXtXtXtXtXtXtXtXtXtXtXtX1Xp.,.,.' +.:.%.,.! A :.2.2.$.r.C.r.C.+X3X+Xk @ . .   . X _ U.#X4X<X4X=X'.[.>.< # L %XtXtXtXtXtX",
"sXtXsXtXsXtXsXtXsXtXsXrXL.*.#.%.g.H.$.q.f.~ K ;.-.M.2.$.] V.C.} O.&X>XP.F h o + a :.! d ( -.+.+._ a $ # D &XsXtXsXtXsXtX",
"tXsXtXsXtXsXtXsXtXsXtX-X-.@.@. .P.Q.` $.#.$.~ A.(.r...M.1.&.-X1Xu.P.tXsX_.B.Q %.:.#.m f 7 A @ @ . . < O.-XsXtXsXtXsXtXsX",
"sXtXsXtXsX8XsX8XsX8XwXq.,.#.` :.~.~.>.2.2.1.:.e.sXeX~.e.M.:.} +.} :XI.y.&.P a.,.<.;.K 6 E ~ C G / g.*XeXsXtXsXtXsXtXsXtX",
"tXtXtXtXtXtXtXtXtXeXF.L 1.@.P ..~.!.y.>.:.:...).tXtXeXQ.q.,.^ S F.eXA.@.>.>.1.$.>.;./ t / ` r.&X1XwXtXtXtXtXsXtXtXtXtXtX",
"sXtXsXtXsXtXsXtXsXL.X.-.:.) _ P J.x.h.f.K I E F.P.-XwXJ.5.=Xe.t.(.1Xg.,.M.:.@.%.>.!.x.A f ^ !.eXtXtXsXtXsXtXsXtXtXtXtXtX",
"tXsXtXsXtXsXtXsXeX-.+.,.( X.E *.J.W.J.f.^ q.Y d.k.j.G.] S *.K O.N.t.:.1.` ~ <.:.f.6XXX5.d m %XpXtXsXtXsXtXsXtXsXtXsXtXsX",
"sXtXsXtXsXtXsXtXsXN./ #.&.[ J P d.h.d.i.Z G J X.X.u.0.4.T 1 { g.O.>.:.( 8.P :.*.E.XX}.c.f t P.wXsXtXsXtXsXtXsXtXsXtXsXtX",
"tXtXtXtXtXtXsXsXwXt.` ` U.&.B i w l l w 4 ; F 3.T 7.6.X.i.b R R ;.>.O.u.[ w.d.{.6XXXXXx.H f ' 1XtXtXtXtXtXtXtXtXsXsXtXtX",
"sXtXsXtXsXtXsXtXA.w.I.r.*X&.5 & + 2 3 2 3 3 J 4.3.k.6.X.4.S.y.1.$.' +.8 b.w.5XoXXX;XOX&.! f ! !.sXtXsXtXsXtXsXtXsXtXsXtX",
"tXsXtXsXtXsXtXpXq.J k q.%X' 0 R 6.X.{ S Z n x u.Y.f.r.)._ W ' ^ [ s.W 5 m l u. X}.}.7.F A ! G.qXtXsXtXsXtXsXtXsXtXsXtXsX",
"sXtXtXtXtXtXtXeXq.6.w.%X|.R X.s.k.g./.V.v.b.0.0.x q.$X%Xq.h.p.Y 8.z.E e 3 i r ] k.u.E o.G q.tXtXtXpXsXpXtXtXtXtXtXtXtXtX",
"tXtXtXpXtXtXtX(.X.8.K.tXJ.R 9.[ [ !.tX+X5.6.s.| u.J R I.X.~.).X.c.u.0.F 2 + ; 9 8 x y b V _ P.J.P.H.P.J.P.K.(.eXtXtXtXsX",
"sXtXsXtXsXtXeXr.l.c.&XrXC.4.{.{ e.&X@Xu.s.s.X.b.c.c a !.G.4._ Y 7.] 7.3.e X.o.S z - - h D b [ [ [ X.4.4.6.X.~.eXtXtXtXtX",
"tXsXtXsXtXsX(.k.n.f.6XwXu.Q n.x g q.x.{.c.P.e.n e 3 - r.%Xw.W ] 8.] 3.4.F u.| Y E R 0 z A.W.-XwX-X-X|.|.W.@XeXsXtXsXtXsX",
"tXsXtXsXtXfXg.v.k.R.rXqX5.J l 3 ; Y E.b.P.wX1X&.& & 2 K #X#Xw.Y 4.X.R +.R 9.9.7.X.E l 9 %XsXtXtXtXsXtXsXtXsXtXtXtXsXtXsX",
"tXtXtXtXtX).u.z.u.>XtXeXH.) e 5 { u.{ 0 &.%XfXqXG.a 6 e q.tX-X] T 8.7.^.A.u.OXOXE.v.s.4.%XtXtXtXtXtXtXtXtXtXtXtXtXtXsXtX",
"sXtXsXtX3X+.9.s.g.tXfXtXfX*Xw.3.s.4.a 6 & x I.eXrXV.r 3 G 1XsX@X*XF.{.k.I.t.[ }. Xb.v.Y O.1XsXtXsXtXsXtXsXtXsXtXsXtXsXtX",
"tXsXtXfXH.8.k.Y.#XsXtXpX3Xg.3.3.i.(.#Xr.l O z >XtXwX+.6 3 ).tXsXtX-Xx.{.z.S.c B 3.B S i c *XtXsXtXsXtXsXtXsXtXsXtXsXtXsX",
"tXsXtXqXf.c.{.x.3XsXtXpXeX+XW.H.&XrXtX3Xr.2 q *XtXfXW.a 2 ' eXsXtXrX!.v.b.u.J e 6 6 & 5 S >XtXfXtXsXtXsXtXsXtXtXtXsXtXtX",
"tXtXtXW.c.c.v.g.fXtXtXtXtXtXsXsXtXtXtXtX_.e u *XtXtX1XP & i &XtXtXtXrX~.z.n.s.&.w 3 & + v >XtXtXtXtXsXsXsXtXtXtXsXsXtXsX",
"sXtXqXw.0.+.F.&XsXtXsXtXsXtXsXtXsXtXsXtX1Xi.V.wXsXtXtXg.& * +XtXtXtXsXrX~.u.u.5.E 6 6 & q *XsXtXtXtXsXtXsXtXsXtXtXtXtXtX",
"tXsX1XN.L.3XwXsXtXsXtXtXtXsXtXsXtXtXtXtXtXeXtXsXtXtXtXp.5 4 *XsXtXtXtXsXeXG.l.v.o.s 6 3 * >XtXsXtXtXtXtXtXsXtXsXtXtXtXtX",
"tXsXtXtXtXsXtXsXtXsXtXsXtXsXtXsXtXsXtXsXtXsXtXsXtXsXtXC.D } 3XsXtXsXtXsXtXqXF.}.}.Y 6 6 ; >XtXtXtXsXtXsXtXsXtXtXtXsXtXtX",
"tXtXtXtXtXtXtXtXtXtXtXtXsXtXtXtXtXtXtXtXtXtXtXtXtXtXpXeX%XwXtXtXtXtXtXtXtXtX1Xg.{.{./ 7 + #XtXtXtXtXtXtXtXsXtXtXtXtXtXtX",
"sXtXsXtXsXtXsXtXsXtXsXtXsXtXsXtXsXtXsXtXpXtXsXtXsXtXsXtXsXtXsXtXsXtXsXtXsXtXsX1Xh.b.z.R ; T.sXtXsXtXsXtXsXtXsXtXsXtXsXtX",
"sXtXsXtXtXtXsXtXsXtXsXtXtXtXsXtXsXtXsXtXsXtXsXtXsXtXtX5X7XoX8X2X8XtXsXtXsXtXsXtX-Xi.0.0.k r.fXtXsXtXsXtXsXtXsXtXsXtXsXsX",
"tXsXtXsXtXsXtXsXtXsXtXsXtXsXtXsXtXsXtXsXtXsXtXsXtXsX8X5X7XXXoX7X5X8XtXtX2XoX5XsXtX&XK.5.S S %XtXtXsXtXtXtXsXtXtXtXsXsXsX",
"tXsXtXtXtXtXtXtXtXtXtXtXtXtXtXtXtXsXtXtXtXtXtXtXtXtXtXtXtXoXtXtX9X}.oX8X7X2XXXtXtXpXeX!.- - &.&XfXsXfXtXtXtXtXtXtXtXtXtX",
"sXtXsXtXsXtXsXtXsXtXsXtXsXtXsXtXsXtXsXtXsXtXsXtXsXtXsXtXsXoX8X5X;XXX.X.X5XoXXX}.5XtXsX-XR e 5 ) wXtXsXtXsXtXsXtXtXtXtXtX",
"sXtXsXtXsXtXsXtXsXtXsXtXsXtXsXtXsXtXsXtXsXtXsXtXsXtX8XXX5XoX2X.X7XoXXX{.5X}.oXoX;X5X7X7XV.B 6 a 1XtXsXtXsXtXsXtXsXtXsXtX",
"tXsXtXsXtXsXtXsXtXsXtXsXtXsXtXsXtXsXtXsXtXsXtXsXtXsX5X{.}..X.X}..X}.}.{.}.}..XXXOX}..X5XtXP.' e.6XsXtXsXtXsXtXtXtXsXtXsX"
};
